0
SECTION
2
HEADER
9
$INSUNITS
70
4
0
ENDSEC
0
SECTION
2
TABLES
0
TABLE
2
LTYPE
0
LTYPE
72
65
70
64
2
CONTINUOUS
3
______
73
0
40
0
0
ENDTAB
0
TABLE
2
LAYER
0
ENDTAB
0
ENDSEC
0
SECTION
2
ENTITIES
0
LINE
8
0
10
-10.5
20
6.5
11
208.5
21
6.5
0
LINE
8
0
10
-11
20
7
11
-11
21
78
0
LINE
8
0
10
-10.5
20
78.5
11
208.5
21
78.5
0
LINE
8
0
10
209
20
7
11
209
21
78
0
ARC
8
0
10
208.5
20
7
40
0.5
50
270
51
0
0
ARC
8
0
10
208.5
20
78
40
0.5
50
0
51
90
0
ARC
8
0
10
-10.5
20
78
40
0.5
50
90
51
180
0
ARC
8
0
10
-10.5
20
7
40
0.5
50
180
51
270
0
LINE
8
0
10
-7
20
10
11
7
21
10
0
LINE
8
0
10
7
20
10
11
7
21
24
0
LINE
8
0
10
7
20
24
11
-7
21
24
0
LINE
8
0
10
-7
20
24
11
-7
21
10
0
LINE
8
0
10
-7
20
27
11
7
21
27
0
LINE
8
0
10
7
20
27
11
7
21
41
0
LINE
8
0
10
7
20
41
11
-7
21
41
0
LINE
8
0
10
-7
20
41
11
-7
21
27
0
LINE
8
0
10
-7
20
44
11
7
21
44
0
LINE
8
0
10
7
20
44
11
7
21
58
0
LINE
8
0
10
7
20
58
11
-7
21
58
0
LINE
8
0
10
-7
20
58
11
-7
21
44
0
LINE
8
0
10
-7
20
61
11
7
21
61
0
LINE
8
0
10
7
20
61
11
7
21
75
0
LINE
8
0
10
7
20
75
11
-7
21
75
0
LINE
8
0
10
-7
20
75
11
-7
21
61
0
LINE
8
0
10
11
20
10
11
25
21
10
0
LINE
8
0
10
25
20
10
11
25
21
24
0
LINE
8
0
10
25
20
24
11
11
21
24
0
LINE
8
0
10
11
20
24
11
11
21
10
0
LINE
8
0
10
11
20
27
11
25
21
27
0
LINE
8
0
10
25
20
27
11
25
21
41
0
LINE
8
0
10
25
20
41
11
11
21
41
0
LINE
8
0
10
11
20
41
11
11
21
27
0
LINE
8
0
10
11
20
44
11
25
21
44
0
LINE
8
0
10
25
20
44
11
25
21
58
0
LINE
8
0
10
25
20
58
11
11
21
58
0
LINE
8
0
10
11
20
58
11
11
21
44
0
LINE
8
0
10
11
20
61
11
25
21
61
0
LINE
8
0
10
25
20
61
11
25
21
75
0
LINE
8
0
10
25
20
75
11
11
21
75
0
LINE
8
0
10
11
20
75
11
11
21
61
0
LINE
8
0
10
29
20
10
11
43
21
10
0
LINE
8
0
10
43
20
10
11
43
21
24
0
LINE
8
0
10
43
20
24
11
29
21
24
0
LINE
8
0
10
29
20
24
11
29
21
10
0
LINE
8
0
10
29
20
27
11
43
21
27
0
LINE
8
0
10
43
20
27
11
43
21
41
0
LINE
8
0
10
43
20
41
11
29
21
41
0
LINE
8
0
10
29
20
41
11
29
21
27
0
LINE
8
0
10
29
20
44
11
43
21
44
0
LINE
8
0
10
43
20
44
11
43
21
58
0
LINE
8
0
10
43
20
58
11
29
21
58
0
LINE
8
0
10
29
20
58
11
29
21
44
0
LINE
8
0
10
29
20
61
11
43
21
61
0
LINE
8
0
10
43
20
61
11
43
21
75
0
LINE
8
0
10
43
20
75
11
29
21
75
0
LINE
8
0
10
29
20
75
11
29
21
61
0
LINE
8
0
10
47
20
10
11
61
21
10
0
LINE
8
0
10
61
20
10
11
61
21
24
0
LINE
8
0
10
61
20
24
11
47
21
24
0
LINE
8
0
10
47
20
24
11
47
21
10
0
LINE
8
0
10
47
20
27
11
61
21
27
0
LINE
8
0
10
61
20
27
11
61
21
41
0
LINE
8
0
10
61
20
41
11
47
21
41
0
LINE
8
0
10
47
20
41
11
47
21
27
0
LINE
8
0
10
47
20
44
11
61
21
44
0
LINE
8
0
10
61
20
44
11
61
21
58
0
LINE
8
0
10
61
20
58
11
47
21
58
0
LINE
8
0
10
47
20
58
11
47
21
44
0
LINE
8
0
10
47
20
61
11
61
21
61
0
LINE
8
0
10
61
20
61
11
61
21
75
0
LINE
8
0
10
61
20
75
11
47
21
75
0
LINE
8
0
10
47
20
75
11
47
21
61
0
LINE
8
0
10
65
20
10
11
79
21
10
0
LINE
8
0
10
79
20
10
11
79
21
24
0
LINE
8
0
10
79
20
24
11
65
21
24
0
LINE
8
0
10
65
20
24
11
65
21
10
0
LINE
8
0
10
65
20
27
11
79
21
27
0
LINE
8
0
10
79
20
27
11
79
21
41
0
LINE
8
0
10
79
20
41
11
65
21
41
0
LINE
8
0
10
65
20
41
11
65
21
27
0
LINE
8
0
10
65
20
44
11
79
21
44
0
LINE
8
0
10
79
20
44
11
79
21
58
0
LINE
8
0
10
79
20
58
11
65
21
58
0
LINE
8
0
10
65
20
58
11
65
21
44
0
LINE
8
0
10
65
20
61
11
79
21
61
0
LINE
8
0
10
79
20
61
11
79
21
75
0
LINE
8
0
10
79
20
75
11
65
21
75
0
LINE
8
0
10
65
20
75
11
65
21
61
0
LINE
8
0
10
83
20
10
11
115
21
10
0
LINE
8
0
10
83
20
24
11
115
21
24
0
LINE
8
0
10
83
20
24
11
83
21
10
0
LINE
8
0
10
83
20
27
11
97
21
27
0
LINE
8
0
10
97
20
27
11
97
21
41
0
LINE
8
0
10
97
20
41
11
83
21
41
0
LINE
8
0
10
83
20
41
11
83
21
27
0
LINE
8
0
10
83
20
44
11
97
21
44
0
LINE
8
0
10
97
20
44
11
97
21
58
0
LINE
8
0
10
97
20
58
11
83
21
58
0
LINE
8
0
10
83
20
58
11
83
21
44
0
LINE
8
0
10
83
20
61
11
97
21
61
0
LINE
8
0
10
97
20
61
11
97
21
75
0
LINE
8
0
10
97
20
75
11
83
21
75
0
LINE
8
0
10
83
20
75
11
83
21
61
0
LINE
8
0
10
115
20
10
11
115
21
24
0
LINE
8
0
10
101
20
27
11
115
21
27
0
LINE
8
0
10
115
20
27
11
115
21
41
0
LINE
8
0
10
115
20
41
11
101
21
41
0
LINE
8
0
10
101
20
41
11
101
21
27
0
LINE
8
0
10
101
20
44
11
115
21
44
0
LINE
8
0
10
115
20
44
11
115
21
58
0
LINE
8
0
10
115
20
58
11
101
21
58
0
LINE
8
0
10
101
20
58
11
101
21
44
0
LINE
8
0
10
101
20
61
11
115
21
61
0
LINE
8
0
10
115
20
61
11
115
21
75
0
LINE
8
0
10
115
20
75
11
101
21
75
0
LINE
8
0
10
101
20
75
11
101
21
61
0
LINE
8
0
10
119
20
10
11
133
21
10
0
LINE
8
0
10
133
20
10
11
133
21
24
0
LINE
8
0
10
133
20
24
11
119
21
24
0
LINE
8
0
10
119
20
24
11
119
21
10
0
LINE
8
0
10
119
20
27
11
133
21
27
0
LINE
8
0
10
133
20
27
11
133
21
41
0
LINE
8
0
10
133
20
41
11
119
21
41
0
LINE
8
0
10
119
20
41
11
119
21
27
0
LINE
8
0
10
119
20
44
11
133
21
44
0
LINE
8
0
10
133
20
44
11
133
21
58
0
LINE
8
0
10
133
20
58
11
119
21
58
0
LINE
8
0
10
119
20
58
11
119
21
44
0
LINE
8
0
10
119
20
61
11
133
21
61
0
LINE
8
0
10
133
20
61
11
133
21
75
0
LINE
8
0
10
133
20
75
11
119
21
75
0
LINE
8
0
10
119
20
75
11
119
21
61
0
LINE
8
0
10
137
20
10
11
151
21
10
0
LINE
8
0
10
151
20
10
11
151
21
24
0
LINE
8
0
10
151
20
24
11
137
21
24
0
LINE
8
0
10
137
20
24
11
137
21
10
0
LINE
8
0
10
137
20
27
11
151
21
27
0
LINE
8
0
10
151
20
27
11
151
21
41
0
LINE
8
0
10
151
20
41
11
137
21
41
0
LINE
8
0
10
137
20
41
11
137
21
27
0
LINE
8
0
10
137
20
44
11
151
21
44
0
LINE
8
0
10
151
20
44
11
151
21
58
0
LINE
8
0
10
151
20
58
11
137
21
58
0
LINE
8
0
10
137
20
58
11
137
21
44
0
LINE
8
0
10
137
20
61
11
151
21
61
0
LINE
8
0
10
151
20
61
11
151
21
75
0
LINE
8
0
10
151
20
75
11
137
21
75
0
LINE
8
0
10
137
20
75
11
137
21
61
0
LINE
8
0
10
155
20
10
11
169
21
10
0
LINE
8
0
10
169
20
10
11
169
21
24
0
LINE
8
0
10
169
20
24
11
155
21
24
0
LINE
8
0
10
155
20
24
11
155
21
10
0
LINE
8
0
10
155
20
27
11
169
21
27
0
LINE
8
0
10
169
20
27
11
169
21
41
0
LINE
8
0
10
169
20
41
11
155
21
41
0
LINE
8
0
10
155
20
41
11
155
21
27
0
LINE
8
0
10
155
20
44
11
169
21
44
0
LINE
8
0
10
169
20
44
11
169
21
58
0
LINE
8
0
10
169
20
58
11
155
21
58
0
LINE
8
0
10
155
20
58
11
155
21
44
0
LINE
8
0
10
155
20
61
11
169
21
61
0
LINE
8
0
10
169
20
61
11
169
21
75
0
LINE
8
0
10
169
20
75
11
155
21
75
0
LINE
8
0
10
155
20
75
11
155
21
61
0
LINE
8
0
10
173
20
10
11
187
21
10
0
LINE
8
0
10
187
20
10
11
187
21
24
0
LINE
8
0
10
187
20
24
11
173
21
24
0
LINE
8
0
10
173
20
24
11
173
21
10
0
LINE
8
0
10
173
20
27
11
187
21
27
0
LINE
8
0
10
187
20
27
11
187
21
41
0
LINE
8
0
10
187
20
41
11
173
21
41
0
LINE
8
0
10
173
20
41
11
173
21
27
0
LINE
8
0
10
173
20
44
11
187
21
44
0
LINE
8
0
10
187
20
44
11
187
21
58
0
LINE
8
0
10
187
20
58
11
173
21
58
0
LINE
8
0
10
173
20
58
11
173
21
44
0
LINE
8
0
10
173
20
61
11
187
21
61
0
LINE
8
0
10
187
20
61
11
187
21
75
0
LINE
8
0
10
187
20
75
11
173
21
75
0
LINE
8
0
10
173
20
75
11
173
21
61
0
LINE
8
0
10
191
20
10
11
205
21
10
0
LINE
8
0
10
205
20
10
11
205
21
24
0
LINE
8
0
10
205
20
24
11
191
21
24
0
LINE
8
0
10
191
20
24
11
191
21
10
0
LINE
8
0
10
191
20
27
11
205
21
27
0
LINE
8
0
10
205
20
27
11
205
21
41
0
LINE
8
0
10
205
20
41
11
191
21
41
0
LINE
8
0
10
191
20
41
11
191
21
27
0
LINE
8
0
10
191
20
44
11
205
21
44
0
LINE
8
0
10
205
20
44
11
205
21
58
0
LINE
8
0
10
205
20
58
11
191
21
58
0
LINE
8
0
10
191
20
58
11
191
21
44
0
LINE
8
0
10
191
20
61
11
205
21
61
0
LINE
8
0
10
205
20
61
11
205
21
75
0
LINE
8
0
10
205
20
75
11
191
21
75
0
LINE
8
0
10
191
20
75
11
191
21
61
0
ENDSEC
0
EOF