0
SECTION
2
HEADER
9
$INSUNITS
70
4
0
ENDSEC
0
SECTION
2
TABLES
0
TABLE
2
LTYPE
0
LTYPE
72
65
70
64
2
CONTINUOUS
3
______
73
0
40
0
0
ENDTAB
0
TABLE
2
LAYER
0
ENDTAB
0
ENDSEC
0
SECTION
2
ENTITIES
0
LINE
8
0
10
-7
20
-7
11
7
21
-7
0
LINE
8
0
10
7
20
-7
11
7
21
7
0
LINE
8
0
10
7
20
7
11
-7
21
7
0
LINE
8
0
10
-7
20
7
11
-7
21
-7
0
LINE
8
0
10
16.75
20
-7
11
30.75
21
-7
0
LINE
8
0
10
30.75
20
-7
11
30.75
21
7
0
LINE
8
0
10
30.75
20
7
11
16.75
21
7
0
LINE
8
0
10
16.75
20
7
11
16.75
21
-7
0
LINE
8
0
10
35.75
20
-7
11
49.75
21
-7
0
LINE
8
0
10
49.75
20
-7
11
49.75
21
7
0
LINE
8
0
10
49.75
20
7
11
35.75
21
7
0
LINE
8
0
10
35.75
20
7
11
35.75
21
-7
0
LINE
8
0
10
54.75
20
-7
11
68.75
21
-7
0
LINE
8
0
10
68.75
20
-7
11
68.75
21
7
0
LINE
8
0
10
68.75
20
7
11
54.75
21
7
0
LINE
8
0
10
54.75
20
7
11
54.75
21
-7
0
LINE
8
0
10
73.75
20
-7
11
87.75
21
-7
0
LINE
8
0
10
87.75
20
-7
11
87.75
21
7
0
LINE
8
0
10
87.75
20
7
11
73.75
21
7
0
LINE
8
0
10
73.75
20
7
11
73.75
21
-7
0
LINE
8
0
10
97.5
20
-7
11
111.5
21
-7
0
LINE
8
0
10
111.5
20
-7
11
111.5
21
7
0
LINE
8
0
10
111.5
20
7
11
97.5
21
7
0
LINE
8
0
10
97.5
20
7
11
97.5
21
-7
0
LINE
8
0
10
116.5
20
-7
11
130.5
21
-7
0
LINE
8
0
10
130.5
20
-7
11
130.5
21
7
0
LINE
8
0
10
130.5
20
7
11
116.5
21
7
0
LINE
8
0
10
116.5
20
7
11
116.5
21
-7
0
LINE
8
0
10
135.5
20
-7
11
149.5
21
-7
0
LINE
8
0
10
149.5
20
-7
11
149.5
21
7
0
LINE
8
0
10
149.5
20
7
11
135.5
21
7
0
LINE
8
0
10
135.5
20
7
11
135.5
21
-7
0
LINE
8
0
10
154.5
20
-7
11
168.5
21
-7
0
LINE
8
0
10
168.5
20
-7
11
168.5
21
7
0
LINE
8
0
10
168.5
20
7
11
154.5
21
7
0
LINE
8
0
10
154.5
20
7
11
154.5
21
-7
0
LINE
8
0
10
178.25
20
-7
11
192.25
21
-7
0
LINE
8
0
10
192.25
20
-7
11
192.25
21
7
0
LINE
8
0
10
192.25
20
7
11
178.25
21
7
0
LINE
8
0
10
178.25
20
7
11
178.25
21
-7
0
LINE
8
0
10
197.25
20
-7
11
211.25
21
-7
0
LINE
8
0
10
211.25
20
-7
11
211.25
21
7
0
LINE
8
0
10
211.25
20
7
11
197.25
21
7
0
LINE
8
0
10
197.25
20
7
11
197.25
21
-7
0
LINE
8
0
10
216.25
20
-7
11
230.25
21
-7
0
LINE
8
0
10
230.25
20
-7
11
230.25
21
7
0
LINE
8
0
10
230.25
20
7
11
216.25
21
7
0
LINE
8
0
10
216.25
20
7
11
216.25
21
-7
0
LINE
8
0
10
235.25
20
-7
11
249.25
21
-7
0
LINE
8
0
10
249.25
20
-7
11
249.25
21
7
0
LINE
8
0
10
249.25
20
7
11
235.25
21
7
0
LINE
8
0
10
235.25
20
7
11
235.25
21
-7
0
LINE
8
0
10
259
20
-7
11
273
21
-7
0
LINE
8
0
10
273
20
-7
11
273
21
7
0
LINE
8
0
10
273
20
7
11
259
21
7
0
LINE
8
0
10
259
20
7
11
259
21
-7
0
LINE
8
0
10
278
20
-7
11
292
21
-7
0
LINE
8
0
10
292
20
-7
11
292
21
7
0
LINE
8
0
10
292
20
7
11
278
21
7
0
LINE
8
0
10
278
20
7
11
278
21
-7
0
LINE
8
0
10
301.75
20
-7
11
315.75
21
-7
0
LINE
8
0
10
315.75
20
-7
11
315.75
21
7
0
LINE
8
0
10
315.75
20
7
11
301.75
21
7
0
LINE
8
0
10
301.75
20
7
11
301.75
21
-7
0
LINE
8
0
10
-7
20
-30.75
11
7
21
-30.75
0
LINE
8
0
10
7
20
-30.75
11
7
21
-16.75
0
LINE
8
0
10
7
20
-16.75
11
-7
21
-16.75
0
LINE
8
0
10
-7
20
-16.75
11
-7
21
-30.75
0
LINE
8
0
10
12
20
-30.75
11
26
21
-30.75
0
LINE
8
0
10
26
20
-30.75
11
26
21
-16.75
0
LINE
8
0
10
26
20
-16.75
11
12
21
-16.75
0
LINE
8
0
10
12
20
-16.75
11
12
21
-30.75
0
LINE
8
0
10
31
20
-30.75
11
45
21
-30.75
0
LINE
8
0
10
45
20
-30.75
11
45
21
-16.75
0
LINE
8
0
10
45
20
-16.75
11
31
21
-16.75
0
LINE
8
0
10
31
20
-16.75
11
31
21
-30.75
0
LINE
8
0
10
50
20
-30.75
11
64
21
-30.75
0
LINE
8
0
10
64
20
-30.75
11
64
21
-16.75
0
LINE
8
0
10
64
20
-16.75
11
50
21
-16.75
0
LINE
8
0
10
50
20
-16.75
11
50
21
-30.75
0
LINE
8
0
10
69
20
-30.75
11
83
21
-30.75
0
LINE
8
0
10
83
20
-30.75
11
83
21
-16.75
0
LINE
8
0
10
83
20
-16.75
11
69
21
-16.75
0
LINE
8
0
10
69
20
-16.75
11
69
21
-30.75
0
LINE
8
0
10
88
20
-30.75
11
102
21
-30.75
0
LINE
8
0
10
102
20
-30.75
11
102
21
-16.75
0
LINE
8
0
10
102
20
-16.75
11
88
21
-16.75
0
LINE
8
0
10
88
20
-16.75
11
88
21
-30.75
0
LINE
8
0
10
107
20
-30.75
11
121
21
-30.75
0
LINE
8
0
10
121
20
-30.75
11
121
21
-16.75
0
LINE
8
0
10
121
20
-16.75
11
107
21
-16.75
0
LINE
8
0
10
107
20
-16.75
11
107
21
-30.75
0
LINE
8
0
10
126
20
-30.75
11
140
21
-30.75
0
LINE
8
0
10
140
20
-30.75
11
140
21
-16.75
0
LINE
8
0
10
140
20
-16.75
11
126
21
-16.75
0
LINE
8
0
10
126
20
-16.75
11
126
21
-30.75
0
LINE
8
0
10
145
20
-30.75
11
159
21
-30.75
0
LINE
8
0
10
159
20
-30.75
11
159
21
-16.75
0
LINE
8
0
10
159
20
-16.75
11
145
21
-16.75
0
LINE
8
0
10
145
20
-16.75
11
145
21
-30.75
0
LINE
8
0
10
164
20
-30.75
11
178
21
-30.75
0
LINE
8
0
10
178
20
-30.75
11
178
21
-16.75
0
LINE
8
0
10
178
20
-16.75
11
164
21
-16.75
0
LINE
8
0
10
164
20
-16.75
11
164
21
-30.75
0
LINE
8
0
10
183
20
-30.75
11
197
21
-30.75
0
LINE
8
0
10
197
20
-30.75
11
197
21
-16.75
0
LINE
8
0
10
197
20
-16.75
11
183
21
-16.75
0
LINE
8
0
10
183
20
-16.75
11
183
21
-30.75
0
LINE
8
0
10
202
20
-30.75
11
216
21
-30.75
0
LINE
8
0
10
216
20
-30.75
11
216
21
-16.75
0
LINE
8
0
10
216
20
-16.75
11
202
21
-16.75
0
LINE
8
0
10
202
20
-16.75
11
202
21
-30.75
0
LINE
8
0
10
221
20
-30.75
11
235
21
-30.75
0
LINE
8
0
10
235
20
-30.75
11
235
21
-16.75
0
LINE
8
0
10
235
20
-16.75
11
221
21
-16.75
0
LINE
8
0
10
221
20
-16.75
11
221
21
-30.75
0
LINE
8
0
10
249.5
20
-30.75
11
263.5
21
-30.75
0
LINE
8
0
10
263.5
20
-30.75
11
263.5
21
-16.75
0
LINE
8
0
10
263.5
20
-16.75
11
249.5
21
-16.75
0
LINE
8
0
10
249.5
20
-16.75
11
249.5
21
-30.75
0
LINE
8
0
10
282.75
20
-30.75
11
296.75
21
-30.75
0
LINE
8
0
10
296.75
20
-30.75
11
296.75
21
-16.75
0
LINE
8
0
10
296.75
20
-16.75
11
282.75
21
-16.75
0
LINE
8
0
10
282.75
20
-16.75
11
282.75
21
-30.75
0
LINE
8
0
10
301.75
20
-30.75
11
315.75
21
-30.75
0
LINE
8
0
10
315.75
20
-30.75
11
315.75
21
-16.75
0
LINE
8
0
10
315.75
20
-16.75
11
301.75
21
-16.75
0
LINE
8
0
10
301.75
20
-16.75
11
301.75
21
-30.75
0
LINE
8
0
10
-2.25
20
-49.75
11
11.75
21
-49.75
0
LINE
8
0
10
11.75
20
-49.75
11
11.75
21
-35.75
0
LINE
8
0
10
11.75
20
-35.75
11
-2.25
21
-35.75
0
LINE
8
0
10
-2.25
20
-35.75
11
-2.25
21
-49.75
0
LINE
8
0
10
21.5
20
-49.75
11
35.5
21
-49.75
0
LINE
8
0
10
35.5
20
-49.75
11
35.5
21
-35.75
0
LINE
8
0
10
35.5
20
-35.75
11
21.5
21
-35.75
0
LINE
8
0
10
21.5
20
-35.75
11
21.5
21
-49.75
0
LINE
8
0
10
40.5
20
-49.75
11
54.5
21
-49.75
0
LINE
8
0
10
54.5
20
-49.75
11
54.5
21
-35.75
0
LINE
8
0
10
54.5
20
-35.75
11
40.5
21
-35.75
0
LINE
8
0
10
40.5
20
-35.75
11
40.5
21
-49.75
0
LINE
8
0
10
59.5
20
-49.75
11
73.5
21
-49.75
0
LINE
8
0
10
73.5
20
-49.75
11
73.5
21
-35.75
0
LINE
8
0
10
73.5
20
-35.75
11
59.5
21
-35.75
0
LINE
8
0
10
59.5
20
-35.75
11
59.5
21
-49.75
0
LINE
8
0
10
78.5
20
-49.75
11
92.5
21
-49.75
0
LINE
8
0
10
92.5
20
-49.75
11
92.5
21
-35.75
0
LINE
8
0
10
92.5
20
-35.75
11
78.5
21
-35.75
0
LINE
8
0
10
78.5
20
-35.75
11
78.5
21
-49.75
0
LINE
8
0
10
97.5
20
-49.75
11
111.5
21
-49.75
0
LINE
8
0
10
111.5
20
-49.75
11
111.5
21
-35.75
0
LINE
8
0
10
111.5
20
-35.75
11
97.5
21
-35.75
0
LINE
8
0
10
97.5
20
-35.75
11
97.5
21
-49.75
0
LINE
8
0
10
116.5
20
-49.75
11
130.5
21
-49.75
0
LINE
8
0
10
130.5
20
-49.75
11
130.5
21
-35.75
0
LINE
8
0
10
130.5
20
-35.75
11
116.5
21
-35.75
0
LINE
8
0
10
116.5
20
-35.75
11
116.5
21
-49.75
0
LINE
8
0
10
135.5
20
-49.75
11
149.5
21
-49.75
0
LINE
8
0
10
149.5
20
-49.75
11
149.5
21
-35.75
0
LINE
8
0
10
149.5
20
-35.75
11
135.5
21
-35.75
0
LINE
8
0
10
135.5
20
-35.75
11
135.5
21
-49.75
0
LINE
8
0
10
154.5
20
-49.75
11
168.5
21
-49.75
0
LINE
8
0
10
168.5
20
-49.75
11
168.5
21
-35.75
0
LINE
8
0
10
168.5
20
-35.75
11
154.5
21
-35.75
0
LINE
8
0
10
154.5
20
-35.75
11
154.5
21
-49.75
0
LINE
8
0
10
173.5
20
-49.75
11
187.5
21
-49.75
0
LINE
8
0
10
187.5
20
-49.75
11
187.5
21
-35.75
0
LINE
8
0
10
187.5
20
-35.75
11
173.5
21
-35.75
0
LINE
8
0
10
173.5
20
-35.75
11
173.5
21
-49.75
0
LINE
8
0
10
192.5
20
-49.75
11
206.5
21
-49.75
0
LINE
8
0
10
206.5
20
-49.75
11
206.5
21
-35.75
0
LINE
8
0
10
206.5
20
-35.75
11
192.5
21
-35.75
0
LINE
8
0
10
192.5
20
-35.75
11
192.5
21
-49.75
0
LINE
8
0
10
211.5
20
-49.75
11
225.5
21
-49.75
0
LINE
8
0
10
225.5
20
-49.75
11
225.5
21
-35.75
0
LINE
8
0
10
225.5
20
-35.75
11
211.5
21
-35.75
0
LINE
8
0
10
211.5
20
-35.75
11
211.5
21
-49.75
0
LINE
8
0
10
230.5
20
-49.75
11
244.5
21
-49.75
0
LINE
8
0
10
244.5
20
-49.75
11
244.5
21
-35.75
0
LINE
8
0
10
244.5
20
-35.75
11
230.5
21
-35.75
0
LINE
8
0
10
230.5
20
-35.75
11
230.5
21
-49.75
0
LINE
8
0
10
254.25
20
-49.75
11
268.25
21
-49.75
0
LINE
8
0
10
268.25
20
-49.75
11
268.25
21
-35.75
0
LINE
8
0
10
268.25
20
-35.75
11
254.25
21
-35.75
0
LINE
8
0
10
254.25
20
-35.75
11
254.25
21
-49.75
0
LINE
8
0
10
282.75
20
-49.75
11
296.75
21
-49.75
0
LINE
8
0
10
296.75
20
-49.75
11
296.75
21
-35.75
0
LINE
8
0
10
296.75
20
-35.75
11
282.75
21
-35.75
0
LINE
8
0
10
282.75
20
-35.75
11
282.75
21
-49.75
0
LINE
8
0
10
301.75
20
-49.75
11
315.75
21
-49.75
0
LINE
8
0
10
315.75
20
-49.75
11
315.75
21
-35.75
0
LINE
8
0
10
315.75
20
-35.75
11
301.75
21
-35.75
0
LINE
8
0
10
301.75
20
-35.75
11
301.75
21
-49.75
0
LINE
8
0
10
0.125
20
-68.75
11
14.125
21
-68.75
0
LINE
8
0
10
14.125
20
-68.75
11
14.125
21
-54.75
0
LINE
8
0
10
14.125
20
-54.75
11
0.125
21
-54.75
0
LINE
8
0
10
0.125
20
-54.75
11
0.125
21
-68.75
0
LINE
8
0
10
26.25
20
-68.75
11
40.25
21
-68.75
0
LINE
8
0
10
40.25
20
-68.75
11
40.25
21
-54.75
0
LINE
8
0
10
40.25
20
-54.75
11
26.25
21
-54.75
0
LINE
8
0
10
26.25
20
-54.75
11
26.25
21
-68.75
0
LINE
8
0
10
45.25
20
-68.75
11
59.25
21
-68.75
0
LINE
8
0
10
59.25
20
-68.75
11
59.25
21
-54.75
0
LINE
8
0
10
59.25
20
-54.75
11
45.25
21
-54.75
0
LINE
8
0
10
45.25
20
-54.75
11
45.25
21
-68.75
0
LINE
8
0
10
64.25
20
-68.75
11
78.25
21
-68.75
0
LINE
8
0
10
78.25
20
-68.75
11
78.25
21
-54.75
0
LINE
8
0
10
78.25
20
-54.75
11
64.25
21
-54.75
0
LINE
8
0
10
64.25
20
-54.75
11
64.25
21
-68.75
0
LINE
8
0
10
83.25
20
-68.75
11
97.25
21
-68.75
0
LINE
8
0
10
97.25
20
-68.75
11
97.25
21
-54.75
0
LINE
8
0
10
97.25
20
-54.75
11
83.25
21
-54.75
0
LINE
8
0
10
83.25
20
-54.75
11
83.25
21
-68.75
0
LINE
8
0
10
102.25
20
-68.75
11
116.25
21
-68.75
0
LINE
8
0
10
116.25
20
-68.75
11
116.25
21
-54.75
0
LINE
8
0
10
116.25
20
-54.75
11
102.25
21
-54.75
0
LINE
8
0
10
102.25
20
-54.75
11
102.25
21
-68.75
0
LINE
8
0
10
121.25
20
-68.75
11
135.25
21
-68.75
0
LINE
8
0
10
135.25
20
-68.75
11
135.25
21
-54.75
0
LINE
8
0
10
135.25
20
-54.75
11
121.25
21
-54.75
0
LINE
8
0
10
121.25
20
-54.75
11
121.25
21
-68.75
0
LINE
8
0
10
140.25
20
-68.75
11
154.25
21
-68.75
0
LINE
8
0
10
154.25
20
-68.75
11
154.25
21
-54.75
0
LINE
8
0
10
154.25
20
-54.75
11
140.25
21
-54.75
0
LINE
8
0
10
140.25
20
-54.75
11
140.25
21
-68.75
0
LINE
8
0
10
159.25
20
-68.75
11
173.25
21
-68.75
0
LINE
8
0
10
173.25
20
-68.75
11
173.25
21
-54.75
0
LINE
8
0
10
173.25
20
-54.75
11
159.25
21
-54.75
0
LINE
8
0
10
159.25
20
-54.75
11
159.25
21
-68.75
0
LINE
8
0
10
178.25
20
-68.75
11
192.25
21
-68.75
0
LINE
8
0
10
192.25
20
-68.75
11
192.25
21
-54.75
0
LINE
8
0
10
192.25
20
-54.75
11
178.25
21
-54.75
0
LINE
8
0
10
178.25
20
-54.75
11
178.25
21
-68.75
0
LINE
8
0
10
197.25
20
-68.75
11
211.25
21
-68.75
0
LINE
8
0
10
211.25
20
-68.75
11
211.25
21
-54.75
0
LINE
8
0
10
211.25
20
-54.75
11
197.25
21
-54.75
0
LINE
8
0
10
197.25
20
-54.75
11
197.25
21
-68.75
0
LINE
8
0
10
216.25
20
-68.75
11
230.25
21
-68.75
0
LINE
8
0
10
230.25
20
-68.75
11
230.25
21
-54.75
0
LINE
8
0
10
230.25
20
-54.75
11
216.25
21
-54.75
0
LINE
8
0
10
216.25
20
-54.75
11
216.25
21
-68.75
0
LINE
8
0
10
247.125
20
-68.75
11
261.125
21
-68.75
0
LINE
8
0
10
261.125
20
-68.75
11
261.125
21
-54.75
0
LINE
8
0
10
261.125
20
-54.75
11
247.125
21
-54.75
0
LINE
8
0
10
247.125
20
-54.75
11
247.125
21
-68.75
0
LINE
8
0
10
282.75
20
-68.75
11
296.75
21
-68.75
0
LINE
8
0
10
296.75
20
-68.75
11
296.75
21
-54.75
0
LINE
8
0
10
296.75
20
-54.75
11
282.75
21
-54.75
0
LINE
8
0
10
282.75
20
-54.75
11
282.75
21
-68.75
0
LINE
8
0
10
301.75
20
-68.75
11
315.75
21
-68.75
0
LINE
8
0
10
315.75
20
-68.75
11
315.75
21
-54.75
0
LINE
8
0
10
315.75
20
-54.75
11
301.75
21
-54.75
0
LINE
8
0
10
301.75
20
-54.75
11
301.75
21
-68.75
0
LINE
8
0
10
4.875
20
-87.75
11
18.875
21
-87.75
0
LINE
8
0
10
18.875
20
-87.75
11
18.875
21
-73.75
0
LINE
8
0
10
18.875
20
-73.75
11
4.875
21
-73.75
0
LINE
8
0
10
4.875
20
-73.75
11
4.875
21
-87.75
0
LINE
8
0
10
35.75
20
-87.75
11
49.75
21
-87.75
0
LINE
8
0
10
49.75
20
-87.75
11
49.75
21
-73.75
0
LINE
8
0
10
49.75
20
-73.75
11
35.75
21
-73.75
0
LINE
8
0
10
35.75
20
-73.75
11
35.75
21
-87.75
0
LINE
8
0
10
54.75
20
-87.75
11
68.75
21
-87.75
0
LINE
8
0
10
68.75
20
-87.75
11
68.75
21
-73.75
0
LINE
8
0
10
68.75
20
-73.75
11
54.75
21
-73.75
0
LINE
8
0
10
54.75
20
-73.75
11
54.75
21
-87.75
0
LINE
8
0
10
73.75
20
-87.75
11
87.75
21
-87.75
0
LINE
8
0
10
87.75
20
-87.75
11
87.75
21
-73.75
0
LINE
8
0
10
87.75
20
-73.75
11
73.75
21
-73.75
0
LINE
8
0
10
73.75
20
-73.75
11
73.75
21
-87.75
0
LINE
8
0
10
92.75
20
-87.75
11
106.75
21
-87.75
0
LINE
8
0
10
106.75
20
-87.75
11
106.75
21
-73.75
0
LINE
8
0
10
106.75
20
-73.75
11
92.75
21
-73.75
0
LINE
8
0
10
92.75
20
-73.75
11
92.75
21
-87.75
0
LINE
8
0
10
111.75
20
-87.75
11
125.75
21
-87.75
0
LINE
8
0
10
125.75
20
-87.75
11
125.75
21
-73.75
0
LINE
8
0
10
125.75
20
-73.75
11
111.75
21
-73.75
0
LINE
8
0
10
111.75
20
-73.75
11
111.75
21
-87.75
0
LINE
8
0
10
130.75
20
-87.75
11
144.75
21
-87.75
0
LINE
8
0
10
144.75
20
-87.75
11
144.75
21
-73.75
0
LINE
8
0
10
144.75
20
-73.75
11
130.75
21
-73.75
0
LINE
8
0
10
130.75
20
-73.75
11
130.75
21
-87.75
0
LINE
8
0
10
149.75
20
-87.75
11
163.75
21
-87.75
0
LINE
8
0
10
163.75
20
-87.75
11
163.75
21
-73.75
0
LINE
8
0
10
163.75
20
-73.75
11
149.75
21
-73.75
0
LINE
8
0
10
149.75
20
-73.75
11
149.75
21
-87.75
0
LINE
8
0
10
168.75
20
-87.75
11
182.75
21
-87.75
0
LINE
8
0
10
182.75
20
-87.75
11
182.75
21
-73.75
0
LINE
8
0
10
182.75
20
-73.75
11
168.75
21
-73.75
0
LINE
8
0
10
168.75
20
-73.75
11
168.75
21
-87.75
0
LINE
8
0
10
187.75
20
-87.75
11
201.75
21
-87.75
0
LINE
8
0
10
201.75
20
-87.75
11
201.75
21
-73.75
0
LINE
8
0
10
201.75
20
-73.75
11
187.75
21
-73.75
0
LINE
8
0
10
187.75
20
-73.75
11
187.75
21
-87.75
0
LINE
8
0
10
206.75
20
-87.75
11
220.75
21
-87.75
0
LINE
8
0
10
220.75
20
-87.75
11
220.75
21
-73.75
0
LINE
8
0
10
220.75
20
-73.75
11
206.75
21
-73.75
0
LINE
8
0
10
206.75
20
-73.75
11
206.75
21
-87.75
0
LINE
8
0
10
242.375
20
-87.75
11
256.375
21
-87.75
0
LINE
8
0
10
256.375
20
-87.75
11
256.375
21
-73.75
0
LINE
8
0
10
256.375
20
-73.75
11
242.375
21
-73.75
0
LINE
8
0
10
242.375
20
-73.75
11
242.375
21
-87.75
0
LINE
8
0
10
282.75
20
-92.5
11
296.75
21
-92.5
0
LINE
8
0
10
296.75
20
-92.5
11
296.75
21
-78.5
0
LINE
8
0
10
296.75
20
-78.5
11
282.75
21
-78.5
0
LINE
8
0
10
282.75
20
-78.5
11
282.75
21
-92.5
0
LINE
8
0
10
-4.625
20
-106.75
11
9.375
21
-106.75
0
LINE
8
0
10
9.375
20
-106.75
11
9.375
21
-92.75
0
LINE
8
0
10
9.375
20
-92.75
11
-4.625
21
-92.75
0
LINE
8
0
10
-4.625
20
-92.75
11
-4.625
21
-106.75
0
LINE
8
0
10
19.125
20
-106.75
11
33.125
21
-106.75
0
LINE
8
0
10
33.125
20
-106.75
11
33.125
21
-92.75
0
LINE
8
0
10
33.125
20
-92.75
11
19.125
21
-92.75
0
LINE
8
0
10
19.125
20
-92.75
11
19.125
21
-106.75
0
LINE
8
0
10
42.875
20
-106.75
11
56.875
21
-106.75
0
LINE
8
0
10
56.875
20
-106.75
11
56.875
21
-92.75
0
LINE
8
0
10
56.875
20
-92.75
11
42.875
21
-92.75
0
LINE
8
0
10
42.875
20
-92.75
11
42.875
21
-106.75
0
LINE
8
0
10
114.125
20
-106.75
11
128.125
21
-106.75
0
LINE
8
0
10
128.125
20
-106.75
11
128.125
21
-92.75
0
LINE
8
0
10
128.125
20
-92.75
11
114.125
21
-92.75
0
LINE
8
0
10
114.125
20
-92.75
11
114.125
21
-106.75
0
LINE
8
0
10
185.375
20
-106.75
11
199.375
21
-106.75
0
LINE
8
0
10
199.375
20
-106.75
11
199.375
21
-92.75
0
LINE
8
0
10
199.375
20
-92.75
11
185.375
21
-92.75
0
LINE
8
0
10
185.375
20
-92.75
11
185.375
21
-106.75
0
LINE
8
0
10
209.125
20
-106.75
11
223.125
21
-106.75
0
LINE
8
0
10
223.125
20
-106.75
11
223.125
21
-92.75
0
LINE
8
0
10
223.125
20
-92.75
11
209.125
21
-92.75
0
LINE
8
0
10
209.125
20
-92.75
11
209.125
21
-106.75
0
LINE
8
0
10
232.875
20
-106.75
11
246.875
21
-106.75
0
LINE
8
0
10
246.875
20
-106.75
11
246.875
21
-92.75
0
LINE
8
0
10
246.875
20
-92.75
11
232.875
21
-92.75
0
LINE
8
0
10
232.875
20
-92.75
11
232.875
21
-106.75
0
LINE
8
0
10
263.75
20
-111.5
11
277.75
21
-111.5
0
LINE
8
0
10
277.75
20
-111.5
11
277.75
21
-97.5
0
LINE
8
0
10
277.75
20
-97.5
11
263.75
21
-97.5
0
LINE
8
0
10
263.75
20
-97.5
11
263.75
21
-111.5
0
LINE
8
0
10
282.75
20
-111.5
11
296.75
21
-111.5
0
LINE
8
0
10
296.75
20
-111.5
11
296.75
21
-97.5
0
LINE
8
0
10
296.75
20
-97.5
11
282.75
21
-97.5
0
LINE
8
0
10
282.75
20
-97.5
11
282.75
21
-111.5
0
LINE
8
0
10
301.75
20
-111.5
11
315.75
21
-111.5
0
LINE
8
0
10
315.75
20
-111.5
11
315.75
21
-97.5
0
LINE
8
0
10
315.75
20
-97.5
11
301.75
21
-97.5
0
LINE
8
0
10
301.75
20
-97.5
11
301.75
21
-111.5
0
ENDSEC
0
EOF