M48
; DRILL file {KiCad 5.99.0-unknown-fa82fcb809~131~ubuntu20.04.1} date Wed Sep  8 19:53:15 2021
; FORMAT={-:-/ absolute / metric / decimal}
; #@! TF.CreationDate,2021-09-08T19:53:15+02:00
; #@! TF.GenerationSoftware,Kicad,Pcbnew,5.99.0-unknown-fa82fcb809~131~ubuntu20.04.1
; #@! TF.FileFunction,Plated,1,2,PTH
FMAT,2
METRIC
; #@! TA.AperFunction,Plated,PTH,ViaDrill
T1C0.300
; #@! TA.AperFunction,Plated,PTH,ComponentDrill
T2C0.300
; #@! TA.AperFunction,Plated,PTH,ViaDrill
T3C0.400
; #@! TA.AperFunction,Plated,PTH,ComponentDrill
T4C0.400
; #@! TA.AperFunction,Plated,PTH,ComponentDrill
T5C0.900
; #@! TA.AperFunction,Plated,PTH,ComponentDrill
T6C1.092
; #@! TA.AperFunction,Plated,PTH,ComponentDrill
T7C1.270
; #@! TA.AperFunction,Plated,PTH,ComponentDrill
T8C2.200
%
G90
G05
T1
X-11.43Y41.91
X11.176Y59.436
X13.462Y19.304
X39.116Y63.5
X64.516Y61.722
X82.042Y2.286
X83.566Y60.706
X102.108Y-6.35
X120.396Y-18.542
T2
X-9.341Y35.467
X-8.266Y32.347
X-3.806Y19.394
X-2.732Y16.273
X1.729Y3.32
X2.803Y0.2
X12.833Y52.935
X13.687Y49.747
X17.233Y36.514
X18.087Y33.326
X21.633Y20.093
X22.487Y16.905
X39.767Y56.805
X40.054Y53.517
X41.248Y39.869
X41.536Y36.582
X42.73Y22.934
X43.017Y19.647
X63.926Y-3.068
X64.572Y55.041
X64.572Y51.741
X64.572Y38.041
X64.572Y34.741
X64.572Y21.041
X64.572Y17.741
X64.78Y0.12
X79.864Y-7.338
X80.718Y-4.151
X83.572Y54.041
X83.572Y50.741
X83.572Y37.041
X83.572Y33.741
X83.572Y20.041
X83.572Y16.741
X98.362Y-15.602
X99.757Y-12.611
X115.145Y-26.951
X117.037Y-24.248
T3
X-17.526Y34.29
X-11.938Y18.034
X-6.096Y2.032
X4.572Y52.324
X8.89Y35.814
X31.496Y57.658
X32.766Y40.64
X34.544Y23.622
X56.388Y56.134
X56.388Y39.116
X56.388Y22.098
X73.152Y-0.762
X75.438Y55.372
X75.438Y38.354
X75.438Y21.336
X92.71Y-7.874
X110.998Y-18.542
T4
X-7.652Y42.236
X-7.575Y43.496
X-6.815Y41.29
X-6.629Y44.333
X-5.555Y41.213
X-5.369Y44.256
X-4.609Y42.05
X-4.532Y43.31
X2.422Y8.371
X2.499Y9.631
X3.259Y7.425
X3.445Y10.468
X4.519Y7.348
X4.705Y10.391
X5.465Y8.185
X5.542Y9.445
X42.972Y47.441
X43.455Y48.607
X43.455Y46.274
X44.622Y49.091
X44.622Y45.791
X45.789Y48.607
X45.789Y46.274
X46.272Y47.441
X83.572Y1.391
X84.055Y2.557
X84.055Y0.224
X85.222Y3.041
X85.222Y-0.259
X86.272Y53.391
X86.389Y2.557
X86.389Y0.224
X86.755Y54.557
X86.755Y52.224
X86.872Y1.391
X87.922Y55.041
X87.922Y51.741
X89.089Y54.557
X89.089Y52.224
X89.572Y53.391
T5
X49.512Y5.016
X49.512Y-6.234
X52.052Y5.016
X52.052Y-6.234
X54.592Y5.016
X54.592Y-6.234
X57.132Y5.016
X57.132Y-6.234
X59.522Y6.241
X59.522Y4.391
X59.522Y-5.609
X59.522Y-7.459
T6
X88.829Y37.819
X90.358Y39.848
X91.886Y41.877
X93.415Y43.905
X94.944Y45.934
X96.472Y47.962
X98.001Y49.991
X99.529Y52.019
X101.0Y28.648
X101.058Y54.048
X102.529Y30.676
X102.587Y56.076
X104.058Y32.705
X104.115Y58.105
X105.586Y34.733
X105.644Y60.133
X107.115Y36.762
X108.643Y38.791
X110.172Y40.819
X111.701Y42.848
X113.229Y44.876
X114.758Y46.905
X116.286Y48.933
X117.815Y50.962
T7
X-20.094Y26.001
X-14.683Y25.643
X-14.683Y25.643
X-14.56Y9.927
X-10.639Y29.256
X-9.148Y9.569
X-9.148Y9.569
X-9.025Y-6.147
X-5.105Y13.183
X-3.614Y-6.505
X-3.614Y-6.505
X0.43Y-2.891
X1.445Y44.241
X5.845Y27.82
X6.819Y43.507
X6.819Y43.507
X10.245Y11.399
X11.105Y46.829
X11.218Y27.086
X11.218Y27.086
X15.505Y30.408
X15.618Y10.665
X15.618Y10.665
X19.904Y13.988
X27.042Y50.221
X28.524Y33.285
X30.005Y16.35
X32.206Y48.564
X32.206Y48.564
X33.688Y31.629
X33.688Y31.629
X35.169Y14.694
X35.169Y14.694
X37.004Y51.092
X38.486Y34.157
X39.967Y17.222
X51.322Y49.591
X51.322Y32.591
X51.322Y15.591
X56.322Y47.491
X56.322Y47.491
X56.322Y30.491
X56.322Y30.491
X56.322Y13.491
X56.322Y13.491
X61.322Y49.591
X61.322Y32.591
X61.322Y15.591
X66.509Y-5.986
X70.322Y48.591
X70.322Y31.591
X70.322Y14.591
X70.795Y-9.308
X70.795Y-9.308
X75.322Y46.491
X75.322Y46.491
X75.322Y29.491
X75.322Y29.491
X75.322Y12.491
X75.322Y12.491
X76.168Y-8.574
X80.322Y48.591
X80.322Y31.591
X80.322Y14.591
X85.445Y-11.95
X89.089Y-15.967
X89.089Y-15.967
X94.508Y-16.177
X103.058Y-21.113
X105.949Y-25.701
X105.949Y-25.701
X111.249Y-26.849
T8
X-6.092Y42.773
X3.982Y8.908
X44.622Y47.441
X85.222Y1.391
X87.922Y53.391
T0
M30
