%TF.GenerationSoftware,KiCad,Pcbnew,5.99.0-unknown-fa82fcb809~131~ubuntu20.04.1*%
%TF.CreationDate,2021-09-08T19:53:08+02:00*%
%TF.ProjectId,tuck-n-roll,7475636b-2d6e-42d7-926f-6c6c2e6b6963,VERSION_HERE*%
%TF.SameCoordinates,Original*%
%TF.FileFunction,Legend,Bot*%
%TF.FilePolarity,Positive*%
%FSLAX46Y46*%
G04 Gerber Fmt 4.6, Leading zero omitted, Abs format (unit mm)*
G04 Created by KiCad (PCBNEW 5.99.0-unknown-fa82fcb809~131~ubuntu20.04.1) date 2021-09-08 19:53:08*
%MOMM*%
%LPD*%
G01*
G04 APERTURE LIST*
G04 Aperture macros list*
%AMRoundRect*
0 Rectangle with rounded corners*
0 $1 Rounding radius*
0 $2 $3 $4 $5 $6 $7 $8 $9 X,Y pos of 4 corners*
0 Add a 4 corners polygon primitive as box body*
4,1,4,$2,$3,$4,$5,$6,$7,$8,$9,$2,$3,0*
0 Add four circle primitives for the rounded corners*
1,1,$1+$1,$2,$3*
1,1,$1+$1,$4,$5*
1,1,$1+$1,$6,$7*
1,1,$1+$1,$8,$9*
0 Add four rect primitives between the rounded corners*
20,1,$1+$1,$2,$3,$4,$5,0*
20,1,$1+$1,$4,$5,$6,$7,0*
20,1,$1+$1,$6,$7,$8,$9,0*
20,1,$1+$1,$8,$9,$2,$3,0*%
%AMRotRect*
0 Rectangle, with rotation*
0 The origin of the aperture is its center*
0 $1 length*
0 $2 width*
0 $3 Rotation angle, in degrees counterclockwise*
0 Add horizontal line*
21,1,$1,$2,0,0,$3*%
G04 Aperture macros list end*
%ADD10C,0.100000*%
%ADD11C,0.010000*%
%ADD12RotRect,1.752600X1.752600X233.000000*%
%ADD13C,1.752600*%
%ADD14C,3.529000*%
%ADD15C,1.801800*%
%ADD16C,3.100000*%
%ADD17RoundRect,0.050000X-0.805936X-1.652413X1.652413X-0.805936X0.805936X1.652413X-1.652413X0.805936X0*%
%ADD18C,2.132000*%
%ADD19RoundRect,0.050000X0.713817X-0.230142X0.420805X0.620824X-0.713817X0.230142X-0.420805X-0.620824X0*%
%ADD20RoundRect,0.050000X-0.919239X-1.592168X1.592168X-0.919239X0.919239X1.592168X-1.592168X0.919239X0*%
%ADD21RoundRect,0.050000X0.696024X-0.279375X0.463087X0.589958X-0.696024X0.279375X-0.463087X-0.589958X0*%
%ADD22RoundRect,0.050000X-1.181751X-1.408356X1.408356X-1.181751X1.181751X1.408356X-1.408356X1.181751X0*%
%ADD23RoundRect,0.050000X0.636937X-0.395994X0.558497X0.500581X-0.636937X0.395994X-0.558497X-0.500581X0*%
%ADD24RoundRect,0.050000X-1.300000X-1.300000X1.300000X-1.300000X1.300000X1.300000X-1.300000X1.300000X0*%
%ADD25RoundRect,0.050000X0.600000X-0.450000X0.600000X0.450000X-0.600000X0.450000X-0.600000X-0.450000X0*%
%ADD26RoundRect,0.050000X-1.592168X-0.919239X0.919239X-1.592168X1.592168X0.919239X-0.919239X1.592168X0*%
%ADD27RoundRect,0.050000X0.463087X-0.589958X0.696024X0.279375X-0.463087X0.589958X-0.696024X-0.279375X0*%
%ADD28RoundRect,0.050000X-1.727604X-0.628796X0.628796X-1.727604X1.727604X0.628796X-0.628796X1.727604X0*%
%ADD29RoundRect,0.050000X0.353606X-0.661409X0.733963X0.154268X-0.353606X0.661409X-0.733963X-0.154268X0*%
%ADD30RoundRect,0.050000X-1.810547X-0.319248X0.319248X-1.810547X1.810547X0.319248X-0.319248X1.810547X0*%
%ADD31RoundRect,0.050000X0.233382X-0.712764X0.749601X0.024473X-0.233382X0.712764X-0.749601X-0.024473X0*%
%ADD32RoundRect,0.050000X-0.172474X1.227215X-1.227215X-0.172474X0.172474X-1.227215X1.227215X0.172474X0*%
%ADD33C,1.852600*%
%ADD34C,1.700000*%
%ADD35C,1.600000*%
%ADD36C,0.800000*%
%ADD37C,4.500000*%
G04 APERTURE END LIST*
D10*
%TO.C,D1*%
X2184478Y1996133D02*
X2021694Y2468892D01*
X2562685Y2126360D02*
X2379819Y1428821D01*
X1806271Y1865905D02*
X2562685Y2126360D01*
X2379819Y1428821D02*
X1806271Y1865905D01*
X2379819Y1428821D02*
X2899854Y1607884D01*
X2379819Y1428821D02*
X1859784Y1249759D01*
X2510046Y1050614D02*
X2379819Y1428821D01*
%TO.C,D2*%
X-3350181Y18069949D02*
X-3512965Y18542708D01*
X-2971974Y18200176D02*
X-3154840Y17502637D01*
X-3728388Y17939721D02*
X-2971974Y18200176D01*
X-3154840Y17502637D02*
X-3728388Y17939721D01*
X-3154840Y17502637D02*
X-2634805Y17681700D01*
X-3154840Y17502637D02*
X-3674875Y17323575D01*
X-3024613Y17124430D02*
X-3154840Y17502637D01*
%TO.C,D3*%
X-8884840Y34143765D02*
X-9047624Y34616524D01*
X-8506633Y34273992D02*
X-8689499Y33576453D01*
X-9263047Y34013537D02*
X-8506633Y34273992D01*
X-8689499Y33576453D02*
X-9263047Y34013537D01*
X-8689499Y33576453D02*
X-8169464Y33755516D01*
X-8689499Y33576453D02*
X-9209534Y33397391D01*
X-8559272Y33198246D02*
X-8689499Y33576453D01*
%TO.C,D4*%
X21995505Y18740730D02*
X21866096Y19223693D01*
X22381876Y18844258D02*
X22150797Y18161175D01*
X21609135Y18637203D02*
X22381876Y18844258D01*
X22150797Y18161175D02*
X21609135Y18637203D01*
X22150797Y18161175D02*
X22682056Y18303525D01*
X22150797Y18161175D02*
X21619537Y18018824D01*
X22254324Y17774805D02*
X22150797Y18161175D01*
%TO.C,D5*%
X17595581Y35161469D02*
X17466172Y35644432D01*
X17981952Y35264997D02*
X17750873Y34581914D01*
X17209211Y35057942D02*
X17981952Y35264997D01*
X17750873Y34581914D02*
X17209211Y35057942D01*
X17750873Y34581914D02*
X18282132Y34724264D01*
X17750873Y34581914D02*
X17219613Y34439563D01*
X17854400Y34195544D02*
X17750873Y34581914D01*
%TO.C,D6*%
X13195658Y51582209D02*
X13066249Y52065172D01*
X13582029Y51685737D02*
X13350950Y51002654D01*
X12809288Y51478682D02*
X13582029Y51685737D01*
X13350950Y51002654D02*
X12809288Y51478682D01*
X13350950Y51002654D02*
X13882209Y51145004D01*
X13350950Y51002654D02*
X12819690Y50860303D01*
X13454477Y50616284D02*
X13350950Y51002654D01*
%TO.C,D7*%
X42851899Y21539464D02*
X42808321Y22037561D01*
X43250377Y21574326D02*
X42904193Y20941747D01*
X42453421Y21504601D02*
X43250377Y21574326D01*
X42904193Y20941747D02*
X42453421Y21504601D01*
X42904193Y20941747D02*
X43452100Y20989683D01*
X42904193Y20941747D02*
X42356285Y20893811D01*
X42939055Y20543269D02*
X42904193Y20941747D01*
%TO.C,D8*%
X41370252Y38474774D02*
X41326674Y38972871D01*
X41768730Y38509636D02*
X41422546Y37877057D01*
X40971774Y38439911D02*
X41768730Y38509636D01*
X41422546Y37877057D02*
X40971774Y38439911D01*
X41422546Y37877057D02*
X41970453Y37924993D01*
X41422546Y37877057D02*
X40874638Y37829121D01*
X41457408Y37478579D02*
X41422546Y37877057D01*
%TO.C,D9*%
X39888604Y55410084D02*
X39845026Y55908181D01*
X40287082Y55444946D02*
X39940898Y54812367D01*
X39490126Y55375221D02*
X40287082Y55444946D01*
X39940898Y54812367D02*
X39490126Y55375221D01*
X39940898Y54812367D02*
X40488805Y54860303D01*
X39940898Y54812367D02*
X39392990Y54764431D01*
X39975760Y54413889D02*
X39940898Y54812367D01*
%TO.C,D10*%
X64572091Y19640601D02*
X64572091Y20140601D01*
X64972091Y19640601D02*
X64572091Y19040601D01*
X64172091Y19640601D02*
X64972091Y19640601D01*
X64572091Y19040601D02*
X64172091Y19640601D01*
X64572091Y19040601D02*
X65122091Y19040601D01*
X64572091Y19040601D02*
X64022091Y19040601D01*
X64572091Y18640601D02*
X64572091Y19040601D01*
%TO.C,D11*%
X64572091Y36640601D02*
X64572091Y37140601D01*
X64972091Y36640601D02*
X64572091Y36040601D01*
X64172091Y36640601D02*
X64972091Y36640601D01*
X64572091Y36040601D02*
X64172091Y36640601D01*
X64572091Y36040601D02*
X65122091Y36040601D01*
X64572091Y36040601D02*
X64022091Y36040601D01*
X64572091Y35640601D02*
X64572091Y36040601D01*
%TO.C,D12*%
X64572091Y53640601D02*
X64572091Y54140601D01*
X64972091Y53640601D02*
X64572091Y53040601D01*
X64172091Y53640601D02*
X64972091Y53640601D01*
X64572091Y53040601D02*
X64172091Y53640601D01*
X64572091Y53040601D02*
X65122091Y53040601D01*
X64572091Y53040601D02*
X64022091Y53040601D01*
X64572091Y52640601D02*
X64572091Y53040601D01*
%TO.C,D13*%
X83572091Y18640601D02*
X83572091Y19140601D01*
X83972091Y18640601D02*
X83572091Y18040601D01*
X83172091Y18640601D02*
X83972091Y18640601D01*
X83572091Y18040601D02*
X83172091Y18640601D01*
X83572091Y18040601D02*
X84122091Y18040601D01*
X83572091Y18040601D02*
X83022091Y18040601D01*
X83572091Y17640601D02*
X83572091Y18040601D01*
%TO.C,D14*%
X83572091Y35640601D02*
X83572091Y36140601D01*
X83972091Y35640601D02*
X83572091Y35040601D01*
X83172091Y35640601D02*
X83972091Y35640601D01*
X83572091Y35040601D02*
X83172091Y35640601D01*
X83572091Y35040601D02*
X84122091Y35040601D01*
X83572091Y35040601D02*
X83022091Y35040601D01*
X83572091Y34640601D02*
X83572091Y35040601D01*
%TO.C,D15*%
X83572091Y52640601D02*
X83572091Y53140601D01*
X83972091Y52640601D02*
X83572091Y52040601D01*
X83172091Y52640601D02*
X83972091Y52640601D01*
X83572091Y52040601D02*
X83172091Y52640601D01*
X83572091Y52040601D02*
X84122091Y52040601D01*
X83572091Y52040601D02*
X83022091Y52040601D01*
X83572091Y51640601D02*
X83572091Y52040601D01*
%TO.C,D16*%
X80355684Y-5503175D02*
X80485093Y-5020212D01*
X80742054Y-5606702D02*
X80200392Y-6082730D01*
X79969313Y-5399647D02*
X80742054Y-5606702D01*
X80200392Y-6082730D02*
X79969313Y-5399647D01*
X80200392Y-6082730D02*
X80731652Y-6225081D01*
X80200392Y-6082730D02*
X79669133Y-5940380D01*
X80096865Y-6469100D02*
X80200392Y-6082730D01*
%TO.C,D17*%
X99165197Y-13879640D02*
X99376506Y-13426486D01*
X99527720Y-14048687D02*
X98911626Y-14423425D01*
X98802673Y-13710593D02*
X99527720Y-14048687D01*
X98911626Y-14423425D02*
X98802673Y-13710593D01*
X98911626Y-14423425D02*
X99410095Y-14655865D01*
X98911626Y-14423425D02*
X98413156Y-14190985D01*
X98742578Y-14785948D02*
X98911626Y-14423425D01*
%TO.C,D18*%
X116234393Y-25395085D02*
X116521181Y-24985509D01*
X116562054Y-25624516D02*
X115890247Y-25886576D01*
X115906732Y-25165654D02*
X116562054Y-25624516D01*
X115890247Y-25886576D02*
X115906732Y-25165654D01*
X115890247Y-25886576D02*
X116340781Y-26202043D01*
X115890247Y-25886576D02*
X115439714Y-25571109D01*
X115660817Y-26214237D02*
X115890247Y-25886576D01*
%TO.C,D19*%
X64417908Y-1232661D02*
X64547317Y-749698D01*
X64804278Y-1336188D02*
X64262616Y-1812216D01*
X64031537Y-1129133D02*
X64804278Y-1336188D01*
X64262616Y-1812216D02*
X64031537Y-1129133D01*
X64262616Y-1812216D02*
X64793876Y-1954567D01*
X64262616Y-1812216D02*
X63731357Y-1669866D01*
X64159089Y-2198586D02*
X64262616Y-1812216D01*
D11*
%TO.C,G\u002A\u002A\u002A*%
X4089855Y-12242135D02*
X4134070Y-12281280D01*
X4134070Y-12281280D02*
X4202292Y-12343256D01*
X4202292Y-12343256D02*
X4291166Y-12424914D01*
X4291166Y-12424914D02*
X4397337Y-12523105D01*
X4397337Y-12523105D02*
X4517448Y-12634681D01*
X4517448Y-12634681D02*
X4648143Y-12756494D01*
X4648143Y-12756494D02*
X4786068Y-12885394D01*
X4786068Y-12885394D02*
X4927865Y-13018233D01*
X4927865Y-13018233D02*
X5070179Y-13151863D01*
X5070179Y-13151863D02*
X5209655Y-13283135D01*
X5209655Y-13283135D02*
X5342936Y-13408900D01*
X5342936Y-13408900D02*
X5466667Y-13526010D01*
X5466667Y-13526010D02*
X5577492Y-13631317D01*
X5577492Y-13631317D02*
X5672055Y-13721671D01*
X5672055Y-13721671D02*
X5747000Y-13793924D01*
X5747000Y-13793924D02*
X5798971Y-13844928D01*
X5798971Y-13844928D02*
X5824613Y-13871534D01*
X5824613Y-13871534D02*
X5826701Y-13874359D01*
X5826701Y-13874359D02*
X5812528Y-13890686D01*
X5812528Y-13890686D02*
X5769691Y-13933917D01*
X5769691Y-13933917D02*
X5700374Y-14001965D01*
X5700374Y-14001965D02*
X5606756Y-14092739D01*
X5606756Y-14092739D02*
X5491020Y-14204149D01*
X5491020Y-14204149D02*
X5355347Y-14334106D01*
X5355347Y-14334106D02*
X5201918Y-14480519D01*
X5201918Y-14480519D02*
X5032916Y-14641300D01*
X5032916Y-14641300D02*
X4850521Y-14814357D01*
X4850521Y-14814357D02*
X4656914Y-14997601D01*
X4656914Y-14997601D02*
X4466743Y-15177186D01*
X4466743Y-15177186D02*
X3100917Y-16465581D01*
X3100917Y-16465581D02*
X3100917Y-22150917D01*
X3100917Y-22150917D02*
X1322917Y-22150917D01*
X1322917Y-22150917D02*
X1322917Y-18111903D01*
X1322917Y-18111903D02*
X2192198Y-17291544D01*
X2192198Y-17291544D02*
X3061478Y-16471184D01*
X3061478Y-16471184D02*
X2980656Y-16392788D01*
X2980656Y-16392788D02*
X2949512Y-16362998D01*
X2949512Y-16362998D02*
X2890857Y-16307306D01*
X2890857Y-16307306D02*
X2807996Y-16228836D01*
X2807996Y-16228836D02*
X2704235Y-16130711D01*
X2704235Y-16130711D02*
X2582877Y-16016056D01*
X2582877Y-16016056D02*
X2447229Y-15887993D01*
X2447229Y-15887993D02*
X2300595Y-15749646D01*
X2300595Y-15749646D02*
X2146281Y-15604139D01*
X2146281Y-15604139D02*
X2116667Y-15576225D01*
X2116667Y-15576225D02*
X1964446Y-15432472D01*
X1964446Y-15432472D02*
X1821987Y-15297395D01*
X1821987Y-15297395D02*
X1692189Y-15173785D01*
X1692189Y-15173785D02*
X1577955Y-15064430D01*
X1577955Y-15064430D02*
X1482184Y-14972117D01*
X1482184Y-14972117D02*
X1407779Y-14899637D01*
X1407779Y-14899637D02*
X1357641Y-14849776D01*
X1357641Y-14849776D02*
X1334669Y-14825325D01*
X1334669Y-14825325D02*
X1333500Y-14823422D01*
X1333500Y-14823422D02*
X1348463Y-14807520D01*
X1348463Y-14807520D02*
X1391573Y-14765119D01*
X1391573Y-14765119D02*
X1460161Y-14698746D01*
X1460161Y-14698746D02*
X1551560Y-14610928D01*
X1551560Y-14610928D02*
X1663100Y-14504192D01*
X1663100Y-14504192D02*
X1792114Y-14381066D01*
X1792114Y-14381066D02*
X1935932Y-14244076D01*
X1935932Y-14244076D02*
X2091887Y-14095750D01*
X2091887Y-14095750D02*
X2257310Y-13938615D01*
X2257310Y-13938615D02*
X2429533Y-13775198D01*
X2429533Y-13775198D02*
X2605886Y-13608026D01*
X2605886Y-13608026D02*
X2783703Y-13439626D01*
X2783703Y-13439626D02*
X2960314Y-13272525D01*
X2960314Y-13272525D02*
X3133050Y-13109250D01*
X3133050Y-13109250D02*
X3299245Y-12952330D01*
X3299245Y-12952330D02*
X3456228Y-12804290D01*
X3456228Y-12804290D02*
X3601332Y-12667657D01*
X3601332Y-12667657D02*
X3731888Y-12544960D01*
X3731888Y-12544960D02*
X3845228Y-12438725D01*
X3845228Y-12438725D02*
X3938684Y-12351479D01*
X3938684Y-12351479D02*
X4009587Y-12285750D01*
X4009587Y-12285750D02*
X4055268Y-12244064D01*
X4055268Y-12244064D02*
X4073005Y-12228969D01*
X4073005Y-12228969D02*
X4089855Y-12242135D01*
X4089855Y-12242135D02*
X4089855Y-12242135D01*
G36*
X4089855Y-12242135D02*
G01*
X4134070Y-12281280D01*
X4202292Y-12343256D01*
X4291166Y-12424914D01*
X4397337Y-12523105D01*
X4517448Y-12634681D01*
X4648143Y-12756494D01*
X4786068Y-12885394D01*
X4927865Y-13018233D01*
X5070179Y-13151863D01*
X5209655Y-13283135D01*
X5342936Y-13408900D01*
X5466667Y-13526010D01*
X5577492Y-13631317D01*
X5672055Y-13721671D01*
X5747000Y-13793924D01*
X5798971Y-13844928D01*
X5824613Y-13871534D01*
X5826701Y-13874359D01*
X5812528Y-13890686D01*
X5769691Y-13933917D01*
X5700374Y-14001965D01*
X5606756Y-14092739D01*
X5491020Y-14204149D01*
X5355347Y-14334106D01*
X5201918Y-14480519D01*
X5032916Y-14641300D01*
X4850521Y-14814357D01*
X4656914Y-14997601D01*
X4466743Y-15177186D01*
X3100917Y-16465581D01*
X3100917Y-22150917D01*
X1322917Y-22150917D01*
X1322917Y-18111903D01*
X2192198Y-17291544D01*
X3061478Y-16471184D01*
X2980656Y-16392788D01*
X2949512Y-16362998D01*
X2890857Y-16307306D01*
X2807996Y-16228836D01*
X2704235Y-16130711D01*
X2582877Y-16016056D01*
X2447229Y-15887993D01*
X2300595Y-15749646D01*
X2146281Y-15604139D01*
X2116667Y-15576225D01*
X1964446Y-15432472D01*
X1821987Y-15297395D01*
X1692189Y-15173785D01*
X1577955Y-15064430D01*
X1482184Y-14972117D01*
X1407779Y-14899637D01*
X1357641Y-14849776D01*
X1334669Y-14825325D01*
X1333500Y-14823422D01*
X1348463Y-14807520D01*
X1391573Y-14765119D01*
X1460161Y-14698746D01*
X1551560Y-14610928D01*
X1663100Y-14504192D01*
X1792114Y-14381066D01*
X1935932Y-14244076D01*
X2091887Y-14095750D01*
X2257310Y-13938615D01*
X2429533Y-13775198D01*
X2605886Y-13608026D01*
X2783703Y-13439626D01*
X2960314Y-13272525D01*
X3133050Y-13109250D01*
X3299245Y-12952330D01*
X3456228Y-12804290D01*
X3601332Y-12667657D01*
X3731888Y-12544960D01*
X3845228Y-12438725D01*
X3938684Y-12351479D01*
X4009587Y-12285750D01*
X4055268Y-12244064D01*
X4073005Y-12228969D01*
X4089855Y-12242135D01*
G37*
X4089855Y-12242135D02*
X4134070Y-12281280D01*
X4202292Y-12343256D01*
X4291166Y-12424914D01*
X4397337Y-12523105D01*
X4517448Y-12634681D01*
X4648143Y-12756494D01*
X4786068Y-12885394D01*
X4927865Y-13018233D01*
X5070179Y-13151863D01*
X5209655Y-13283135D01*
X5342936Y-13408900D01*
X5466667Y-13526010D01*
X5577492Y-13631317D01*
X5672055Y-13721671D01*
X5747000Y-13793924D01*
X5798971Y-13844928D01*
X5824613Y-13871534D01*
X5826701Y-13874359D01*
X5812528Y-13890686D01*
X5769691Y-13933917D01*
X5700374Y-14001965D01*
X5606756Y-14092739D01*
X5491020Y-14204149D01*
X5355347Y-14334106D01*
X5201918Y-14480519D01*
X5032916Y-14641300D01*
X4850521Y-14814357D01*
X4656914Y-14997601D01*
X4466743Y-15177186D01*
X3100917Y-16465581D01*
X3100917Y-22150917D01*
X1322917Y-22150917D01*
X1322917Y-18111903D01*
X2192198Y-17291544D01*
X3061478Y-16471184D01*
X2980656Y-16392788D01*
X2949512Y-16362998D01*
X2890857Y-16307306D01*
X2807996Y-16228836D01*
X2704235Y-16130711D01*
X2582877Y-16016056D01*
X2447229Y-15887993D01*
X2300595Y-15749646D01*
X2146281Y-15604139D01*
X2116667Y-15576225D01*
X1964446Y-15432472D01*
X1821987Y-15297395D01*
X1692189Y-15173785D01*
X1577955Y-15064430D01*
X1482184Y-14972117D01*
X1407779Y-14899637D01*
X1357641Y-14849776D01*
X1334669Y-14825325D01*
X1333500Y-14823422D01*
X1348463Y-14807520D01*
X1391573Y-14765119D01*
X1460161Y-14698746D01*
X1551560Y-14610928D01*
X1663100Y-14504192D01*
X1792114Y-14381066D01*
X1935932Y-14244076D01*
X2091887Y-14095750D01*
X2257310Y-13938615D01*
X2429533Y-13775198D01*
X2605886Y-13608026D01*
X2783703Y-13439626D01*
X2960314Y-13272525D01*
X3133050Y-13109250D01*
X3299245Y-12952330D01*
X3456228Y-12804290D01*
X3601332Y-12667657D01*
X3731888Y-12544960D01*
X3845228Y-12438725D01*
X3938684Y-12351479D01*
X4009587Y-12285750D01*
X4055268Y-12244064D01*
X4073005Y-12228969D01*
X4089855Y-12242135D01*
X-524196Y-18206390D02*
X348607Y-19028834D01*
X348607Y-19028834D02*
X348929Y-22706542D01*
X348929Y-22706542D02*
X349250Y-26384250D01*
X349250Y-26384250D02*
X-527917Y-26384250D01*
X-527917Y-26384250D02*
X-716284Y-26383880D01*
X-716284Y-26383880D02*
X-891099Y-26382822D01*
X-891099Y-26382822D02*
X-1047914Y-26381156D01*
X-1047914Y-26381156D02*
X-1182286Y-26378963D01*
X-1182286Y-26378963D02*
X-1289767Y-26376321D01*
X-1289767Y-26376321D02*
X-1365912Y-26373312D01*
X-1365912Y-26373312D02*
X-1406275Y-26370014D01*
X-1406275Y-26370014D02*
X-1411626Y-26368375D01*
X-1411626Y-26368375D02*
X-1412207Y-26345985D01*
X-1412207Y-26345985D02*
X-1412677Y-26283218D01*
X-1412677Y-26283218D02*
X-1413037Y-26182030D01*
X-1413037Y-26182030D02*
X-1413288Y-26044377D01*
X-1413288Y-26044377D02*
X-1413433Y-25872216D01*
X-1413433Y-25872216D02*
X-1413472Y-25667502D01*
X-1413472Y-25667502D02*
X-1413409Y-25432191D01*
X-1413409Y-25432191D02*
X-1413244Y-25168240D01*
X-1413244Y-25168240D02*
X-1412979Y-24877605D01*
X-1412979Y-24877605D02*
X-1412617Y-24562242D01*
X-1412617Y-24562242D02*
X-1412158Y-24224107D01*
X-1412158Y-24224107D02*
X-1411605Y-23865156D01*
X-1411605Y-23865156D02*
X-1410959Y-23487346D01*
X-1410959Y-23487346D02*
X-1410222Y-23092631D01*
X-1410222Y-23092631D02*
X-1409397Y-22682970D01*
X-1409397Y-22682970D02*
X-1408483Y-22260317D01*
X-1408483Y-22260317D02*
X-1407583Y-21868223D01*
X-1407583Y-21868223D02*
X-1397000Y-17383946D01*
X-1397000Y-17383946D02*
X-524196Y-18206390D01*
X-524196Y-18206390D02*
X-524196Y-18206390D01*
G36*
X-524196Y-18206390D02*
G01*
X348607Y-19028834D01*
X348929Y-22706542D01*
X349250Y-26384250D01*
X-527917Y-26384250D01*
X-716284Y-26383880D01*
X-891099Y-26382822D01*
X-1047914Y-26381156D01*
X-1182286Y-26378963D01*
X-1289767Y-26376321D01*
X-1365912Y-26373312D01*
X-1406275Y-26370014D01*
X-1411626Y-26368375D01*
X-1412207Y-26345985D01*
X-1412677Y-26283218D01*
X-1413037Y-26182030D01*
X-1413288Y-26044377D01*
X-1413433Y-25872216D01*
X-1413472Y-25667502D01*
X-1413409Y-25432191D01*
X-1413244Y-25168240D01*
X-1412979Y-24877605D01*
X-1412617Y-24562242D01*
X-1412158Y-24224107D01*
X-1411605Y-23865156D01*
X-1410959Y-23487346D01*
X-1410222Y-23092631D01*
X-1409397Y-22682970D01*
X-1408483Y-22260317D01*
X-1407583Y-21868223D01*
X-1397000Y-17383946D01*
X-524196Y-18206390D01*
G37*
X-524196Y-18206390D02*
X348607Y-19028834D01*
X348929Y-22706542D01*
X349250Y-26384250D01*
X-527917Y-26384250D01*
X-716284Y-26383880D01*
X-891099Y-26382822D01*
X-1047914Y-26381156D01*
X-1182286Y-26378963D01*
X-1289767Y-26376321D01*
X-1365912Y-26373312D01*
X-1406275Y-26370014D01*
X-1411626Y-26368375D01*
X-1412207Y-26345985D01*
X-1412677Y-26283218D01*
X-1413037Y-26182030D01*
X-1413288Y-26044377D01*
X-1413433Y-25872216D01*
X-1413472Y-25667502D01*
X-1413409Y-25432191D01*
X-1413244Y-25168240D01*
X-1412979Y-24877605D01*
X-1412617Y-24562242D01*
X-1412158Y-24224107D01*
X-1411605Y-23865156D01*
X-1410959Y-23487346D01*
X-1410222Y-23092631D01*
X-1409397Y-22682970D01*
X-1408483Y-22260317D01*
X-1407583Y-21868223D01*
X-1397000Y-17383946D01*
X-524196Y-18206390D01*
X13599584Y-16721667D02*
X13599510Y-17154794D01*
X13599510Y-17154794D02*
X13599294Y-17576557D01*
X13599294Y-17576557D02*
X13598942Y-17985014D01*
X13598942Y-17985014D02*
X13598461Y-18378222D01*
X13598461Y-18378222D02*
X13597859Y-18754236D01*
X13597859Y-18754236D02*
X13597141Y-19111115D01*
X13597141Y-19111115D02*
X13596315Y-19446915D01*
X13596315Y-19446915D02*
X13595388Y-19759692D01*
X13595388Y-19759692D02*
X13594366Y-20047504D01*
X13594366Y-20047504D02*
X13593257Y-20308407D01*
X13593257Y-20308407D02*
X13592067Y-20540458D01*
X13592067Y-20540458D02*
X13590802Y-20741715D01*
X13590802Y-20741715D02*
X13589471Y-20910233D01*
X13589471Y-20910233D02*
X13588080Y-21044071D01*
X13588080Y-21044071D02*
X13586635Y-21141284D01*
X13586635Y-21141284D02*
X13585143Y-21199929D01*
X13585143Y-21199929D02*
X13583709Y-21218154D01*
X13583709Y-21218154D02*
X13565838Y-21203734D01*
X13565838Y-21203734D02*
X13520073Y-21162746D01*
X13520073Y-21162746D02*
X13449204Y-21097789D01*
X13449204Y-21097789D02*
X13356019Y-21011462D01*
X13356019Y-21011462D02*
X13243308Y-20906363D01*
X13243308Y-20906363D02*
X13113858Y-20785091D01*
X13113858Y-20785091D02*
X12970459Y-20650244D01*
X12970459Y-20650244D02*
X12815901Y-20504423D01*
X12815901Y-20504423D02*
X12694709Y-20389770D01*
X12694709Y-20389770D02*
X11821584Y-19562816D01*
X11821584Y-19562816D02*
X11821584Y-12223750D01*
X11821584Y-12223750D02*
X13599584Y-12223750D01*
X13599584Y-12223750D02*
X13599584Y-16721667D01*
X13599584Y-16721667D02*
X13599584Y-16721667D01*
G36*
X13599584Y-16721667D02*
G01*
X13599510Y-17154794D01*
X13599294Y-17576557D01*
X13598942Y-17985014D01*
X13598461Y-18378222D01*
X13597859Y-18754236D01*
X13597141Y-19111115D01*
X13596315Y-19446915D01*
X13595388Y-19759692D01*
X13594366Y-20047504D01*
X13593257Y-20308407D01*
X13592067Y-20540458D01*
X13590802Y-20741715D01*
X13589471Y-20910233D01*
X13588080Y-21044071D01*
X13586635Y-21141284D01*
X13585143Y-21199929D01*
X13583709Y-21218154D01*
X13565838Y-21203734D01*
X13520073Y-21162746D01*
X13449204Y-21097789D01*
X13356019Y-21011462D01*
X13243308Y-20906363D01*
X13113858Y-20785091D01*
X12970459Y-20650244D01*
X12815901Y-20504423D01*
X12694709Y-20389770D01*
X11821584Y-19562816D01*
X11821584Y-12223750D01*
X13599584Y-12223750D01*
X13599584Y-16721667D01*
G37*
X13599584Y-16721667D02*
X13599510Y-17154794D01*
X13599294Y-17576557D01*
X13598942Y-17985014D01*
X13598461Y-18378222D01*
X13597859Y-18754236D01*
X13597141Y-19111115D01*
X13596315Y-19446915D01*
X13595388Y-19759692D01*
X13594366Y-20047504D01*
X13593257Y-20308407D01*
X13592067Y-20540458D01*
X13590802Y-20741715D01*
X13589471Y-20910233D01*
X13588080Y-21044071D01*
X13586635Y-21141284D01*
X13585143Y-21199929D01*
X13583709Y-21218154D01*
X13565838Y-21203734D01*
X13520073Y-21162746D01*
X13449204Y-21097789D01*
X13356019Y-21011462D01*
X13243308Y-20906363D01*
X13113858Y-20785091D01*
X12970459Y-20650244D01*
X12815901Y-20504423D01*
X12694709Y-20389770D01*
X11821584Y-19562816D01*
X11821584Y-12223750D01*
X13599584Y-12223750D01*
X13599584Y-16721667D01*
X10869084Y-20491282D02*
X10002939Y-21305225D01*
X10002939Y-21305225D02*
X9842501Y-21456201D01*
X9842501Y-21456201D02*
X9691640Y-21598567D01*
X9691640Y-21598567D02*
X9553128Y-21729681D01*
X9553128Y-21729681D02*
X9429732Y-21846903D01*
X9429732Y-21846903D02*
X9324222Y-21947592D01*
X9324222Y-21947592D02*
X9239367Y-22029107D01*
X9239367Y-22029107D02*
X9177937Y-22088808D01*
X9177937Y-22088808D02*
X9142702Y-22124054D01*
X9142702Y-22124054D02*
X9135106Y-22132756D01*
X9135106Y-22132756D02*
X9149748Y-22149387D01*
X9149748Y-22149387D02*
X9192487Y-22192381D01*
X9192487Y-22192381D02*
X9260579Y-22259100D01*
X9260579Y-22259100D02*
X9351281Y-22346906D01*
X9351281Y-22346906D02*
X9461849Y-22453160D01*
X9461849Y-22453160D02*
X9589541Y-22575224D01*
X9589541Y-22575224D02*
X9731615Y-22710459D01*
X9731615Y-22710459D02*
X9885326Y-22856229D01*
X9885326Y-22856229D02*
X10002252Y-22966779D01*
X10002252Y-22966779D02*
X10162261Y-23118399D01*
X10162261Y-23118399D02*
X10312149Y-23261444D01*
X10312149Y-23261444D02*
X10449228Y-23393281D01*
X10449228Y-23393281D02*
X10570811Y-23511277D01*
X10570811Y-23511277D02*
X10674211Y-23612798D01*
X10674211Y-23612798D02*
X10756741Y-23695209D01*
X10756741Y-23695209D02*
X10815713Y-23755879D01*
X10815713Y-23755879D02*
X10848441Y-23792172D01*
X10848441Y-23792172D02*
X10854210Y-23801767D01*
X10854210Y-23801767D02*
X10836591Y-23818158D01*
X10836591Y-23818158D02*
X10790422Y-23861449D01*
X10790422Y-23861449D02*
X10717965Y-23929509D01*
X10717965Y-23929509D02*
X10621484Y-24020210D01*
X10621484Y-24020210D02*
X10503242Y-24131423D01*
X10503242Y-24131423D02*
X10365501Y-24261017D01*
X10365501Y-24261017D02*
X10210525Y-24406864D01*
X10210525Y-24406864D02*
X10040578Y-24566836D01*
X10040578Y-24566836D02*
X9857921Y-24738801D01*
X9857921Y-24738801D02*
X9664819Y-24920633D01*
X9664819Y-24920633D02*
X9513390Y-25063243D01*
X9513390Y-25063243D02*
X9313152Y-25251793D01*
X9313152Y-25251793D02*
X9121101Y-25432556D01*
X9121101Y-25432556D02*
X8939560Y-25603351D01*
X8939560Y-25603351D02*
X8770856Y-25761993D01*
X8770856Y-25761993D02*
X8617311Y-25906298D01*
X8617311Y-25906298D02*
X8481251Y-26034085D01*
X8481251Y-26034085D02*
X8365000Y-26143168D01*
X8365000Y-26143168D02*
X8270883Y-26231365D01*
X8270883Y-26231365D02*
X8201224Y-26296493D01*
X8201224Y-26296493D02*
X8158347Y-26336367D01*
X8158347Y-26336367D02*
X8145284Y-26348285D01*
X8145284Y-26348285D02*
X8135265Y-26355887D01*
X8135265Y-26355887D02*
X8123960Y-26359653D01*
X8123960Y-26359653D02*
X8108876Y-26357450D01*
X8108876Y-26357450D02*
X8087520Y-26347145D01*
X8087520Y-26347145D02*
X8057401Y-26326604D01*
X8057401Y-26326604D02*
X8016026Y-26293696D01*
X8016026Y-26293696D02*
X7960903Y-26246286D01*
X7960903Y-26246286D02*
X7889539Y-26182242D01*
X7889539Y-26182242D02*
X7799443Y-26099430D01*
X7799443Y-26099430D02*
X7688122Y-25995718D01*
X7688122Y-25995718D02*
X7553083Y-25868972D01*
X7553083Y-25868972D02*
X7391835Y-25717060D01*
X7391835Y-25717060D02*
X7236144Y-25570175D01*
X7236144Y-25570175D02*
X7075780Y-25418623D01*
X7075780Y-25418623D02*
X6924834Y-25275534D01*
X6924834Y-25275534D02*
X6786090Y-25143576D01*
X6786090Y-25143576D02*
X6662333Y-25025420D01*
X6662333Y-25025420D02*
X6556346Y-24923732D01*
X6556346Y-24923732D02*
X6470913Y-24841183D01*
X6470913Y-24841183D02*
X6408819Y-24780442D01*
X6408819Y-24780442D02*
X6372847Y-24744176D01*
X6372847Y-24744176D02*
X6364706Y-24734801D01*
X6364706Y-24734801D02*
X6378801Y-24717775D01*
X6378801Y-24717775D02*
X6421578Y-24673875D01*
X6421578Y-24673875D02*
X6490855Y-24605197D01*
X6490855Y-24605197D02*
X6584451Y-24513841D01*
X6584451Y-24513841D02*
X6700182Y-24401904D01*
X6700182Y-24401904D02*
X6835865Y-24271485D01*
X6835865Y-24271485D02*
X6989320Y-24124681D01*
X6989320Y-24124681D02*
X7158363Y-23963591D01*
X7158363Y-23963591D02*
X7340811Y-23790313D01*
X7340811Y-23790313D02*
X7534483Y-23606945D01*
X7534483Y-23606945D02*
X7724032Y-23427994D01*
X7724032Y-23427994D02*
X9089818Y-22140334D01*
X9089818Y-22140334D02*
X9091084Y-16457084D01*
X9091084Y-16457084D02*
X10869084Y-16457084D01*
X10869084Y-16457084D02*
X10869084Y-20491282D01*
X10869084Y-20491282D02*
X10869084Y-20491282D01*
G36*
X10869084Y-20491282D02*
G01*
X10002939Y-21305225D01*
X9842501Y-21456201D01*
X9691640Y-21598567D01*
X9553128Y-21729681D01*
X9429732Y-21846903D01*
X9324222Y-21947592D01*
X9239367Y-22029107D01*
X9177937Y-22088808D01*
X9142702Y-22124054D01*
X9135106Y-22132756D01*
X9149748Y-22149387D01*
X9192487Y-22192381D01*
X9260579Y-22259100D01*
X9351281Y-22346906D01*
X9461849Y-22453160D01*
X9589541Y-22575224D01*
X9731615Y-22710459D01*
X9885326Y-22856229D01*
X10002252Y-22966779D01*
X10162261Y-23118399D01*
X10312149Y-23261444D01*
X10449228Y-23393281D01*
X10570811Y-23511277D01*
X10674211Y-23612798D01*
X10756741Y-23695209D01*
X10815713Y-23755879D01*
X10848441Y-23792172D01*
X10854210Y-23801767D01*
X10836591Y-23818158D01*
X10790422Y-23861449D01*
X10717965Y-23929509D01*
X10621484Y-24020210D01*
X10503242Y-24131423D01*
X10365501Y-24261017D01*
X10210525Y-24406864D01*
X10040578Y-24566836D01*
X9857921Y-24738801D01*
X9664819Y-24920633D01*
X9513390Y-25063243D01*
X9313152Y-25251793D01*
X9121101Y-25432556D01*
X8939560Y-25603351D01*
X8770856Y-25761993D01*
X8617311Y-25906298D01*
X8481251Y-26034085D01*
X8365000Y-26143168D01*
X8270883Y-26231365D01*
X8201224Y-26296493D01*
X8158347Y-26336367D01*
X8145284Y-26348285D01*
X8135265Y-26355887D01*
X8123960Y-26359653D01*
X8108876Y-26357450D01*
X8087520Y-26347145D01*
X8057401Y-26326604D01*
X8016026Y-26293696D01*
X7960903Y-26246286D01*
X7889539Y-26182242D01*
X7799443Y-26099430D01*
X7688122Y-25995718D01*
X7553083Y-25868972D01*
X7391835Y-25717060D01*
X7236144Y-25570175D01*
X7075780Y-25418623D01*
X6924834Y-25275534D01*
X6786090Y-25143576D01*
X6662333Y-25025420D01*
X6556346Y-24923732D01*
X6470913Y-24841183D01*
X6408819Y-24780442D01*
X6372847Y-24744176D01*
X6364706Y-24734801D01*
X6378801Y-24717775D01*
X6421578Y-24673875D01*
X6490855Y-24605197D01*
X6584451Y-24513841D01*
X6700182Y-24401904D01*
X6835865Y-24271485D01*
X6989320Y-24124681D01*
X7158363Y-23963591D01*
X7340811Y-23790313D01*
X7534483Y-23606945D01*
X7724032Y-23427994D01*
X9089818Y-22140334D01*
X9091084Y-16457084D01*
X10869084Y-16457084D01*
X10869084Y-20491282D01*
G37*
X10869084Y-20491282D02*
X10002939Y-21305225D01*
X9842501Y-21456201D01*
X9691640Y-21598567D01*
X9553128Y-21729681D01*
X9429732Y-21846903D01*
X9324222Y-21947592D01*
X9239367Y-22029107D01*
X9177937Y-22088808D01*
X9142702Y-22124054D01*
X9135106Y-22132756D01*
X9149748Y-22149387D01*
X9192487Y-22192381D01*
X9260579Y-22259100D01*
X9351281Y-22346906D01*
X9461849Y-22453160D01*
X9589541Y-22575224D01*
X9731615Y-22710459D01*
X9885326Y-22856229D01*
X10002252Y-22966779D01*
X10162261Y-23118399D01*
X10312149Y-23261444D01*
X10449228Y-23393281D01*
X10570811Y-23511277D01*
X10674211Y-23612798D01*
X10756741Y-23695209D01*
X10815713Y-23755879D01*
X10848441Y-23792172D01*
X10854210Y-23801767D01*
X10836591Y-23818158D01*
X10790422Y-23861449D01*
X10717965Y-23929509D01*
X10621484Y-24020210D01*
X10503242Y-24131423D01*
X10365501Y-24261017D01*
X10210525Y-24406864D01*
X10040578Y-24566836D01*
X9857921Y-24738801D01*
X9664819Y-24920633D01*
X9513390Y-25063243D01*
X9313152Y-25251793D01*
X9121101Y-25432556D01*
X8939560Y-25603351D01*
X8770856Y-25761993D01*
X8617311Y-25906298D01*
X8481251Y-26034085D01*
X8365000Y-26143168D01*
X8270883Y-26231365D01*
X8201224Y-26296493D01*
X8158347Y-26336367D01*
X8145284Y-26348285D01*
X8135265Y-26355887D01*
X8123960Y-26359653D01*
X8108876Y-26357450D01*
X8087520Y-26347145D01*
X8057401Y-26326604D01*
X8016026Y-26293696D01*
X7960903Y-26246286D01*
X7889539Y-26182242D01*
X7799443Y-26099430D01*
X7688122Y-25995718D01*
X7553083Y-25868972D01*
X7391835Y-25717060D01*
X7236144Y-25570175D01*
X7075780Y-25418623D01*
X6924834Y-25275534D01*
X6786090Y-25143576D01*
X6662333Y-25025420D01*
X6556346Y-24923732D01*
X6470913Y-24841183D01*
X6408819Y-24780442D01*
X6372847Y-24744176D01*
X6364706Y-24734801D01*
X6378801Y-24717775D01*
X6421578Y-24673875D01*
X6490855Y-24605197D01*
X6584451Y-24513841D01*
X6700182Y-24401904D01*
X6835865Y-24271485D01*
X6989320Y-24124681D01*
X7158363Y-23963591D01*
X7340811Y-23790313D01*
X7534483Y-23606945D01*
X7724032Y-23427994D01*
X9089818Y-22140334D01*
X9091084Y-16457084D01*
X10869084Y-16457084D01*
X10869084Y-20491282D01*
%TD*%
D12*
%TO.C,MCU1*%
X105643844Y60133370D03*
D13*
X104115234Y58104835D03*
X102586624Y56076301D03*
X101058014Y54047767D03*
X99529404Y52019233D03*
X98000793Y49990699D03*
X96472183Y47962164D03*
X94943573Y45933630D03*
X93414963Y43905096D03*
X91886353Y41876562D03*
X90357743Y39848028D03*
X88829133Y37819493D03*
X117815049Y50961709D03*
X116286439Y48933174D03*
X114757829Y46904640D03*
X113229219Y44876106D03*
X111700609Y42847572D03*
X110171999Y40819038D03*
X108643389Y38790503D03*
X107114778Y36761969D03*
X105586168Y34733435D03*
X104057558Y32704901D03*
X102528948Y30676367D03*
X101000338Y28647832D03*
%TD*%
%LPC*%
D11*
%TO.C,G\u002A\u002A\u002A*%
X10869084Y-16478250D02*
X3082600Y-16478250D01*
X3082600Y-16478250D02*
X1726130Y-17758834D01*
X1726130Y-17758834D02*
X1524366Y-17949119D01*
X1524366Y-17949119D02*
X1331270Y-18130860D01*
X1331270Y-18130860D02*
X1149071Y-18301978D01*
X1149071Y-18301978D02*
X980000Y-18460396D01*
X980000Y-18460396D02*
X826286Y-18604039D01*
X826286Y-18604039D02*
X690157Y-18730827D01*
X690157Y-18730827D02*
X573845Y-18838685D01*
X573845Y-18838685D02*
X479579Y-18925535D01*
X479579Y-18925535D02*
X409589Y-18989301D01*
X409589Y-18989301D02*
X366103Y-19027904D01*
X366103Y-19027904D02*
X351474Y-19039417D01*
X351474Y-19039417D02*
X333044Y-19025312D01*
X333044Y-19025312D02*
X286765Y-18984778D01*
X286765Y-18984778D02*
X215533Y-18920482D01*
X215533Y-18920482D02*
X122245Y-18835096D01*
X122245Y-18835096D02*
X9797Y-18731286D01*
X9797Y-18731286D02*
X-118913Y-18611724D01*
X-118913Y-18611724D02*
X-260989Y-18479077D01*
X-260989Y-18479077D02*
X-413534Y-18336015D01*
X-413534Y-18336015D02*
X-489522Y-18264525D01*
X-489522Y-18264525D02*
X-647443Y-18115783D01*
X-647443Y-18115783D02*
X-797219Y-17974676D01*
X-797219Y-17974676D02*
X-935801Y-17844080D01*
X-935801Y-17844080D02*
X-1060137Y-17726873D01*
X-1060137Y-17726873D02*
X-1167178Y-17625929D01*
X-1167178Y-17625929D02*
X-1253872Y-17544127D01*
X-1253872Y-17544127D02*
X-1317169Y-17484343D01*
X-1317169Y-17484343D02*
X-1354018Y-17449453D01*
X-1354018Y-17449453D02*
X-1361008Y-17442785D01*
X-1361008Y-17442785D02*
X-1409684Y-17395938D01*
X-1409684Y-17395938D02*
X-162138Y-16218475D01*
X-162138Y-16218475D02*
X34558Y-16032856D01*
X34558Y-16032856D02*
X224845Y-15853340D01*
X224845Y-15853340D02*
X406114Y-15682385D01*
X406114Y-15682385D02*
X575757Y-15522447D01*
X575757Y-15522447D02*
X731164Y-15375984D01*
X731164Y-15375984D02*
X869728Y-15245455D01*
X869728Y-15245455D02*
X988840Y-15133318D01*
X988840Y-15133318D02*
X1085890Y-15042029D01*
X1085890Y-15042029D02*
X1158271Y-14974047D01*
X1158271Y-14974047D02*
X1203373Y-14931829D01*
X1203373Y-14931829D02*
X1212079Y-14923737D01*
X1212079Y-14923737D02*
X1338749Y-14806462D01*
X1338749Y-14806462D02*
X2212694Y-15630784D01*
X2212694Y-15630784D02*
X3086639Y-16455105D01*
X3086639Y-16455105D02*
X3405986Y-16151995D01*
X3405986Y-16151995D02*
X3501491Y-16061404D01*
X3501491Y-16061404D02*
X3621067Y-15948071D01*
X3621067Y-15948071D02*
X3758023Y-15818335D01*
X3758023Y-15818335D02*
X3905665Y-15678533D01*
X3905665Y-15678533D02*
X4057300Y-15535003D01*
X4057300Y-15535003D02*
X4206235Y-15394084D01*
X4206235Y-15394084D02*
X4275667Y-15328412D01*
X4275667Y-15328412D02*
X4826000Y-14807939D01*
X4826000Y-14807939D02*
X7847542Y-14807011D01*
X7847542Y-14807011D02*
X10869084Y-14806084D01*
X10869084Y-14806084D02*
X10869084Y-16478250D01*
X10869084Y-16478250D02*
X10869084Y-16478250D01*
G36*
X10869084Y-16478250D02*
G01*
X3082600Y-16478250D01*
X1726130Y-17758834D01*
X1524366Y-17949119D01*
X1331270Y-18130860D01*
X1149071Y-18301978D01*
X980000Y-18460396D01*
X826286Y-18604039D01*
X690157Y-18730827D01*
X573845Y-18838685D01*
X479579Y-18925535D01*
X409589Y-18989301D01*
X366103Y-19027904D01*
X351474Y-19039417D01*
X333044Y-19025312D01*
X286765Y-18984778D01*
X215533Y-18920482D01*
X122245Y-18835096D01*
X9797Y-18731286D01*
X-118913Y-18611724D01*
X-260989Y-18479077D01*
X-413534Y-18336015D01*
X-489522Y-18264525D01*
X-647443Y-18115783D01*
X-797219Y-17974676D01*
X-935801Y-17844080D01*
X-1060137Y-17726873D01*
X-1167178Y-17625929D01*
X-1253872Y-17544127D01*
X-1317169Y-17484343D01*
X-1354018Y-17449453D01*
X-1361008Y-17442785D01*
X-1409684Y-17395938D01*
X-162138Y-16218475D01*
X34558Y-16032856D01*
X224845Y-15853340D01*
X406114Y-15682385D01*
X575757Y-15522447D01*
X731164Y-15375984D01*
X869728Y-15245455D01*
X988840Y-15133318D01*
X1085890Y-15042029D01*
X1158271Y-14974047D01*
X1203373Y-14931829D01*
X1212079Y-14923737D01*
X1338749Y-14806462D01*
X2212694Y-15630784D01*
X3086639Y-16455105D01*
X3405986Y-16151995D01*
X3501491Y-16061404D01*
X3621067Y-15948071D01*
X3758023Y-15818335D01*
X3905665Y-15678533D01*
X4057300Y-15535003D01*
X4206235Y-15394084D01*
X4275667Y-15328412D01*
X4826000Y-14807939D01*
X7847542Y-14807011D01*
X10869084Y-14806084D01*
X10869084Y-16478250D01*
G37*
X10869084Y-16478250D02*
X3082600Y-16478250D01*
X1726130Y-17758834D01*
X1524366Y-17949119D01*
X1331270Y-18130860D01*
X1149071Y-18301978D01*
X980000Y-18460396D01*
X826286Y-18604039D01*
X690157Y-18730827D01*
X573845Y-18838685D01*
X479579Y-18925535D01*
X409589Y-18989301D01*
X366103Y-19027904D01*
X351474Y-19039417D01*
X333044Y-19025312D01*
X286765Y-18984778D01*
X215533Y-18920482D01*
X122245Y-18835096D01*
X9797Y-18731286D01*
X-118913Y-18611724D01*
X-260989Y-18479077D01*
X-413534Y-18336015D01*
X-489522Y-18264525D01*
X-647443Y-18115783D01*
X-797219Y-17974676D01*
X-935801Y-17844080D01*
X-1060137Y-17726873D01*
X-1167178Y-17625929D01*
X-1253872Y-17544127D01*
X-1317169Y-17484343D01*
X-1354018Y-17449453D01*
X-1361008Y-17442785D01*
X-1409684Y-17395938D01*
X-162138Y-16218475D01*
X34558Y-16032856D01*
X224845Y-15853340D01*
X406114Y-15682385D01*
X575757Y-15522447D01*
X731164Y-15375984D01*
X869728Y-15245455D01*
X988840Y-15133318D01*
X1085890Y-15042029D01*
X1158271Y-14974047D01*
X1203373Y-14931829D01*
X1212079Y-14923737D01*
X1338749Y-14806462D01*
X2212694Y-15630784D01*
X3086639Y-16455105D01*
X3405986Y-16151995D01*
X3501491Y-16061404D01*
X3621067Y-15948071D01*
X3758023Y-15818335D01*
X3905665Y-15678533D01*
X4057300Y-15535003D01*
X4206235Y-15394084D01*
X4275667Y-15328412D01*
X4826000Y-14807939D01*
X7847542Y-14807011D01*
X10869084Y-14806084D01*
X10869084Y-16478250D01*
X3360209Y-24713263D02*
X6371167Y-24714442D01*
X6371167Y-24714442D02*
X7164917Y-25465107D01*
X7164917Y-25465107D02*
X7321376Y-25613159D01*
X7321376Y-25613159D02*
X7470892Y-25754805D01*
X7470892Y-25754805D02*
X7610174Y-25886917D01*
X7610174Y-25886917D02*
X7735933Y-26006367D01*
X7735933Y-26006367D02*
X7844880Y-26110028D01*
X7844880Y-26110028D02*
X7933726Y-26194773D01*
X7933726Y-26194773D02*
X7999181Y-26257473D01*
X7999181Y-26257473D02*
X8037957Y-26295002D01*
X8037957Y-26295002D02*
X8043022Y-26300011D01*
X8043022Y-26300011D02*
X8127378Y-26384250D01*
X8127378Y-26384250D02*
X349250Y-26384250D01*
X349250Y-26384250D02*
X349250Y-24712084D01*
X349250Y-24712084D02*
X3360209Y-24713263D01*
X3360209Y-24713263D02*
X3360209Y-24713263D01*
G36*
X3360209Y-24713263D02*
G01*
X6371167Y-24714442D01*
X7164917Y-25465107D01*
X7321376Y-25613159D01*
X7470892Y-25754805D01*
X7610174Y-25886917D01*
X7735933Y-26006367D01*
X7844880Y-26110028D01*
X7933726Y-26194773D01*
X7999181Y-26257473D01*
X8037957Y-26295002D01*
X8043022Y-26300011D01*
X8127378Y-26384250D01*
X349250Y-26384250D01*
X349250Y-24712084D01*
X3360209Y-24713263D01*
G37*
X3360209Y-24713263D02*
X6371167Y-24714442D01*
X7164917Y-25465107D01*
X7321376Y-25613159D01*
X7470892Y-25754805D01*
X7610174Y-25886917D01*
X7735933Y-26006367D01*
X7844880Y-26110028D01*
X7933726Y-26194773D01*
X7999181Y-26257473D01*
X8037957Y-26295002D01*
X8043022Y-26300011D01*
X8127378Y-26384250D01*
X349250Y-26384250D01*
X349250Y-24712084D01*
X3360209Y-24713263D01*
X11842750Y-13895917D02*
X5820834Y-13895527D01*
X5820834Y-13895527D02*
X4953000Y-13076818D01*
X4953000Y-13076818D02*
X4792359Y-12925088D01*
X4792359Y-12925088D02*
X4641112Y-12781880D01*
X4641112Y-12781880D02*
X4502041Y-12649850D01*
X4502041Y-12649850D02*
X4377926Y-12531656D01*
X4377926Y-12531656D02*
X4271549Y-12429955D01*
X4271549Y-12429955D02*
X4185691Y-12347404D01*
X4185691Y-12347404D02*
X4123131Y-12286659D01*
X4123131Y-12286659D02*
X4086653Y-12250379D01*
X4086653Y-12250379D02*
X4078111Y-12240929D01*
X4078111Y-12240929D02*
X4098191Y-12239151D01*
X4098191Y-12239151D02*
X4158517Y-12237424D01*
X4158517Y-12237424D02*
X4257004Y-12235757D01*
X4257004Y-12235757D02*
X4391565Y-12234160D01*
X4391565Y-12234160D02*
X4560114Y-12232641D01*
X4560114Y-12232641D02*
X4760564Y-12231209D01*
X4760564Y-12231209D02*
X4990828Y-12229875D01*
X4990828Y-12229875D02*
X5248821Y-12228647D01*
X5248821Y-12228647D02*
X5532456Y-12227534D01*
X5532456Y-12227534D02*
X5839647Y-12226546D01*
X5839647Y-12226546D02*
X6168306Y-12225692D01*
X6168306Y-12225692D02*
X6516348Y-12224982D01*
X6516348Y-12224982D02*
X6881687Y-12224424D01*
X6881687Y-12224424D02*
X7262235Y-12224027D01*
X7262235Y-12224027D02*
X7655907Y-12223802D01*
X7655907Y-12223802D02*
X7956903Y-12223750D01*
X7956903Y-12223750D02*
X11842750Y-12223750D01*
X11842750Y-12223750D02*
X11842750Y-13895917D01*
X11842750Y-13895917D02*
X11842750Y-13895917D01*
G36*
X11842750Y-13895917D02*
G01*
X5820834Y-13895527D01*
X4953000Y-13076818D01*
X4792359Y-12925088D01*
X4641112Y-12781880D01*
X4502041Y-12649850D01*
X4377926Y-12531656D01*
X4271549Y-12429955D01*
X4185691Y-12347404D01*
X4123131Y-12286659D01*
X4086653Y-12250379D01*
X4078111Y-12240929D01*
X4098191Y-12239151D01*
X4158517Y-12237424D01*
X4257004Y-12235757D01*
X4391565Y-12234160D01*
X4560114Y-12232641D01*
X4760564Y-12231209D01*
X4990828Y-12229875D01*
X5248821Y-12228647D01*
X5532456Y-12227534D01*
X5839647Y-12226546D01*
X6168306Y-12225692D01*
X6516348Y-12224982D01*
X6881687Y-12224424D01*
X7262235Y-12224027D01*
X7655907Y-12223802D01*
X7956903Y-12223750D01*
X11842750Y-12223750D01*
X11842750Y-13895917D01*
G37*
X11842750Y-13895917D02*
X5820834Y-13895527D01*
X4953000Y-13076818D01*
X4792359Y-12925088D01*
X4641112Y-12781880D01*
X4502041Y-12649850D01*
X4377926Y-12531656D01*
X4271549Y-12429955D01*
X4185691Y-12347404D01*
X4123131Y-12286659D01*
X4086653Y-12250379D01*
X4078111Y-12240929D01*
X4098191Y-12239151D01*
X4158517Y-12237424D01*
X4257004Y-12235757D01*
X4391565Y-12234160D01*
X4560114Y-12232641D01*
X4760564Y-12231209D01*
X4990828Y-12229875D01*
X5248821Y-12228647D01*
X5532456Y-12227534D01*
X5839647Y-12226546D01*
X6168306Y-12225692D01*
X6516348Y-12224982D01*
X6881687Y-12224424D01*
X7262235Y-12224027D01*
X7655907Y-12223802D01*
X7956903Y-12223750D01*
X11842750Y-12223750D01*
X11842750Y-13895917D01*
X11856122Y-19593256D02*
X11904158Y-19633394D01*
X11904158Y-19633394D02*
X11975767Y-19696388D01*
X11975767Y-19696388D02*
X12067556Y-19779046D01*
X12067556Y-19779046D02*
X12176132Y-19878173D01*
X12176132Y-19878173D02*
X12298102Y-19990578D01*
X12298102Y-19990578D02*
X12430075Y-20113067D01*
X12430075Y-20113067D02*
X12568657Y-20242448D01*
X12568657Y-20242448D02*
X12710457Y-20375527D01*
X12710457Y-20375527D02*
X12852081Y-20509111D01*
X12852081Y-20509111D02*
X12990137Y-20640007D01*
X12990137Y-20640007D02*
X13121232Y-20765023D01*
X13121232Y-20765023D02*
X13241974Y-20880965D01*
X13241974Y-20880965D02*
X13348971Y-20984641D01*
X13348971Y-20984641D02*
X13438830Y-21072857D01*
X13438830Y-21072857D02*
X13508158Y-21142420D01*
X13508158Y-21142420D02*
X13553563Y-21190138D01*
X13553563Y-21190138D02*
X13571652Y-21212817D01*
X13571652Y-21212817D02*
X13571818Y-21213776D01*
X13571818Y-21213776D02*
X13556113Y-21232326D01*
X13556113Y-21232326D02*
X13512054Y-21277408D01*
X13512054Y-21277408D02*
X13442163Y-21346591D01*
X13442163Y-21346591D02*
X13348960Y-21437445D01*
X13348960Y-21437445D02*
X13234968Y-21547539D01*
X13234968Y-21547539D02*
X13102708Y-21674444D01*
X13102708Y-21674444D02*
X12954702Y-21815729D01*
X12954702Y-21815729D02*
X12793471Y-21968964D01*
X12793471Y-21968964D02*
X12621537Y-22131718D01*
X12621537Y-22131718D02*
X12520084Y-22227465D01*
X12520084Y-22227465D02*
X12332764Y-22404080D01*
X12332764Y-22404080D02*
X12146564Y-22579680D01*
X12146564Y-22579680D02*
X11965079Y-22750874D01*
X11965079Y-22750874D02*
X11791901Y-22914271D01*
X11791901Y-22914271D02*
X11630626Y-23066477D01*
X11630626Y-23066477D02*
X11484847Y-23204102D01*
X11484847Y-23204102D02*
X11358158Y-23323753D01*
X11358158Y-23323753D02*
X11254152Y-23422037D01*
X11254152Y-23422037D02*
X11176424Y-23495564D01*
X11176424Y-23495564D02*
X11160930Y-23510239D01*
X11160930Y-23510239D02*
X10849526Y-23805267D01*
X10849526Y-23805267D02*
X9979523Y-22983384D01*
X9979523Y-22983384D02*
X9818871Y-22831748D01*
X9818871Y-22831748D02*
X9667547Y-22689172D01*
X9667547Y-22689172D02*
X9528321Y-22558248D01*
X9528321Y-22558248D02*
X9403963Y-22441567D01*
X9403963Y-22441567D02*
X9297242Y-22341723D01*
X9297242Y-22341723D02*
X9210928Y-22261307D01*
X9210928Y-22261307D02*
X9147790Y-22202912D01*
X9147790Y-22202912D02*
X9110598Y-22169130D01*
X9110598Y-22169130D02*
X9101419Y-22161500D01*
X9101419Y-22161500D02*
X9084975Y-22175616D01*
X9084975Y-22175616D02*
X9040555Y-22216236D01*
X9040555Y-22216236D02*
X8970932Y-22280764D01*
X8970932Y-22280764D02*
X8878879Y-22366608D01*
X8878879Y-22366608D02*
X8767167Y-22471172D01*
X8767167Y-22471172D02*
X8638571Y-22591863D01*
X8638571Y-22591863D02*
X8495862Y-22726086D01*
X8495862Y-22726086D02*
X8341813Y-22871248D01*
X8341813Y-22871248D02*
X8224768Y-22981709D01*
X8224768Y-22981709D02*
X7356218Y-23801917D01*
X7356218Y-23801917D02*
X1322917Y-23801917D01*
X1322917Y-23801917D02*
X1322917Y-22129750D01*
X1322917Y-22129750D02*
X9102958Y-22129750D01*
X9102958Y-22129750D02*
X10454910Y-20854459D01*
X10454910Y-20854459D02*
X10656567Y-20664533D01*
X10656567Y-20664533D02*
X10849753Y-20483161D01*
X10849753Y-20483161D02*
X11032215Y-20312425D01*
X11032215Y-20312425D02*
X11201699Y-20154409D01*
X11201699Y-20154409D02*
X11355950Y-20011196D01*
X11355950Y-20011196D02*
X11492714Y-19884867D01*
X11492714Y-19884867D02*
X11609737Y-19777506D01*
X11609737Y-19777506D02*
X11704766Y-19691196D01*
X11704766Y-19691196D02*
X11775546Y-19628020D01*
X11775546Y-19628020D02*
X11819824Y-19590059D01*
X11819824Y-19590059D02*
X11835050Y-19579167D01*
X11835050Y-19579167D02*
X11856122Y-19593256D01*
X11856122Y-19593256D02*
X11856122Y-19593256D01*
G36*
X11856122Y-19593256D02*
G01*
X11904158Y-19633394D01*
X11975767Y-19696388D01*
X12067556Y-19779046D01*
X12176132Y-19878173D01*
X12298102Y-19990578D01*
X12430075Y-20113067D01*
X12568657Y-20242448D01*
X12710457Y-20375527D01*
X12852081Y-20509111D01*
X12990137Y-20640007D01*
X13121232Y-20765023D01*
X13241974Y-20880965D01*
X13348971Y-20984641D01*
X13438830Y-21072857D01*
X13508158Y-21142420D01*
X13553563Y-21190138D01*
X13571652Y-21212817D01*
X13571818Y-21213776D01*
X13556113Y-21232326D01*
X13512054Y-21277408D01*
X13442163Y-21346591D01*
X13348960Y-21437445D01*
X13234968Y-21547539D01*
X13102708Y-21674444D01*
X12954702Y-21815729D01*
X12793471Y-21968964D01*
X12621537Y-22131718D01*
X12520084Y-22227465D01*
X12332764Y-22404080D01*
X12146564Y-22579680D01*
X11965079Y-22750874D01*
X11791901Y-22914271D01*
X11630626Y-23066477D01*
X11484847Y-23204102D01*
X11358158Y-23323753D01*
X11254152Y-23422037D01*
X11176424Y-23495564D01*
X11160930Y-23510239D01*
X10849526Y-23805267D01*
X9979523Y-22983384D01*
X9818871Y-22831748D01*
X9667547Y-22689172D01*
X9528321Y-22558248D01*
X9403963Y-22441567D01*
X9297242Y-22341723D01*
X9210928Y-22261307D01*
X9147790Y-22202912D01*
X9110598Y-22169130D01*
X9101419Y-22161500D01*
X9084975Y-22175616D01*
X9040555Y-22216236D01*
X8970932Y-22280764D01*
X8878879Y-22366608D01*
X8767167Y-22471172D01*
X8638571Y-22591863D01*
X8495862Y-22726086D01*
X8341813Y-22871248D01*
X8224768Y-22981709D01*
X7356218Y-23801917D01*
X1322917Y-23801917D01*
X1322917Y-22129750D01*
X9102958Y-22129750D01*
X10454910Y-20854459D01*
X10656567Y-20664533D01*
X10849753Y-20483161D01*
X11032215Y-20312425D01*
X11201699Y-20154409D01*
X11355950Y-20011196D01*
X11492714Y-19884867D01*
X11609737Y-19777506D01*
X11704766Y-19691196D01*
X11775546Y-19628020D01*
X11819824Y-19590059D01*
X11835050Y-19579167D01*
X11856122Y-19593256D01*
G37*
X11856122Y-19593256D02*
X11904158Y-19633394D01*
X11975767Y-19696388D01*
X12067556Y-19779046D01*
X12176132Y-19878173D01*
X12298102Y-19990578D01*
X12430075Y-20113067D01*
X12568657Y-20242448D01*
X12710457Y-20375527D01*
X12852081Y-20509111D01*
X12990137Y-20640007D01*
X13121232Y-20765023D01*
X13241974Y-20880965D01*
X13348971Y-20984641D01*
X13438830Y-21072857D01*
X13508158Y-21142420D01*
X13553563Y-21190138D01*
X13571652Y-21212817D01*
X13571818Y-21213776D01*
X13556113Y-21232326D01*
X13512054Y-21277408D01*
X13442163Y-21346591D01*
X13348960Y-21437445D01*
X13234968Y-21547539D01*
X13102708Y-21674444D01*
X12954702Y-21815729D01*
X12793471Y-21968964D01*
X12621537Y-22131718D01*
X12520084Y-22227465D01*
X12332764Y-22404080D01*
X12146564Y-22579680D01*
X11965079Y-22750874D01*
X11791901Y-22914271D01*
X11630626Y-23066477D01*
X11484847Y-23204102D01*
X11358158Y-23323753D01*
X11254152Y-23422037D01*
X11176424Y-23495564D01*
X11160930Y-23510239D01*
X10849526Y-23805267D01*
X9979523Y-22983384D01*
X9818871Y-22831748D01*
X9667547Y-22689172D01*
X9528321Y-22558248D01*
X9403963Y-22441567D01*
X9297242Y-22341723D01*
X9210928Y-22261307D01*
X9147790Y-22202912D01*
X9110598Y-22169130D01*
X9101419Y-22161500D01*
X9084975Y-22175616D01*
X9040555Y-22216236D01*
X8970932Y-22280764D01*
X8878879Y-22366608D01*
X8767167Y-22471172D01*
X8638571Y-22591863D01*
X8495862Y-22726086D01*
X8341813Y-22871248D01*
X8224768Y-22981709D01*
X7356218Y-23801917D01*
X1322917Y-23801917D01*
X1322917Y-22129750D01*
X9102958Y-22129750D01*
X10454910Y-20854459D01*
X10656567Y-20664533D01*
X10849753Y-20483161D01*
X11032215Y-20312425D01*
X11201699Y-20154409D01*
X11355950Y-20011196D01*
X11492714Y-19884867D01*
X11609737Y-19777506D01*
X11704766Y-19691196D01*
X11775546Y-19628020D01*
X11819824Y-19590059D01*
X11835050Y-19579167D01*
X11856122Y-19593256D01*
%TD*%
D14*
%TO.C,S1*%
X-5534659Y-926184D03*
D15*
X-334307Y864441D03*
X-10735011Y-2716809D03*
D16*
X-2027947Y4247351D03*
X-7471790Y4699652D03*
D17*
X-10568363Y3633416D03*
X1068627Y5313587D03*
D16*
X-11483132Y991670D03*
X-7471790Y4699652D03*
%TD*%
D14*
%TO.C,S2*%
X-5534659Y-926184D03*
D15*
X-10735011Y-2716809D03*
X-334307Y864441D03*
D18*
X-9025093Y-6146995D03*
X-3613807Y-6504744D03*
X430093Y-2891314D03*
X-3613807Y-6504744D03*
%TD*%
D19*
%TO.C,D1*%
X2803057Y199647D03*
X1728683Y3319859D03*
%TD*%
D14*
%TO.C,S3*%
X-11069317Y15147632D03*
D15*
X-5868965Y16938257D03*
X-16269669Y13357007D03*
D16*
X-7562605Y20321167D03*
X-13006448Y20773468D03*
D17*
X-16103021Y19707232D03*
X-4466031Y21387403D03*
D16*
X-17017790Y17065486D03*
X-13006448Y20773468D03*
%TD*%
D14*
%TO.C,S4*%
X-11069317Y15147632D03*
D15*
X-16269669Y13357007D03*
X-5868965Y16938257D03*
D18*
X-14559751Y9926821D03*
X-9148465Y9569072D03*
X-5104565Y13182502D03*
X-9148465Y9569072D03*
%TD*%
D19*
%TO.C,D2*%
X-2731602Y16273463D03*
X-3805976Y19393675D03*
%TD*%
D14*
%TO.C,S5*%
X-16603976Y31221447D03*
D15*
X-11403624Y33012072D03*
X-21804328Y29430822D03*
D16*
X-13097264Y36394982D03*
X-18541107Y36847283D03*
D17*
X-21637680Y35781047D03*
X-10000690Y37461218D03*
D16*
X-22552449Y33139301D03*
X-18541107Y36847283D03*
%TD*%
D14*
%TO.C,S6*%
X-16603976Y31221447D03*
D15*
X-21804328Y29430822D03*
X-11403624Y33012072D03*
D18*
X-20094410Y26000636D03*
X-14683124Y25642887D03*
X-10639224Y29256317D03*
X-14683124Y25642887D03*
%TD*%
D19*
%TO.C,D3*%
X-8266261Y32347279D03*
X-9340635Y35467491D03*
%TD*%
D14*
%TO.C,S7*%
X14091322Y16363992D03*
D15*
X19403914Y17787497D03*
X8778730Y14940487D03*
D16*
X17950380Y21280309D03*
X12551349Y22111251D03*
D20*
X9387942Y21263618D03*
X21113787Y22127941D03*
D16*
X8291121Y18692119D03*
X12551349Y22111251D03*
%TD*%
D14*
%TO.C,S8*%
X14091322Y16363992D03*
D15*
X8778730Y14940487D03*
X19403914Y17787497D03*
D18*
X10245205Y11399379D03*
X15618354Y10665030D03*
X19904464Y13987569D03*
X15618354Y10665030D03*
%TD*%
D21*
%TO.C,D4*%
X22487261Y16905471D03*
X21633159Y20093027D03*
%TD*%
D14*
%TO.C,S9*%
X9691398Y32784731D03*
D15*
X15003990Y34208236D03*
X4378806Y31361226D03*
D16*
X13550456Y37701048D03*
X8151425Y38531990D03*
D20*
X4988018Y37684357D03*
X16713863Y38548680D03*
D16*
X3891197Y35112858D03*
X8151425Y38531990D03*
%TD*%
D14*
%TO.C,S10*%
X9691398Y32784731D03*
D15*
X4378806Y31361226D03*
X15003990Y34208236D03*
D18*
X5845281Y27820118D03*
X11218430Y27085769D03*
X15504540Y30408308D03*
X11218430Y27085769D03*
%TD*%
D21*
%TO.C,D5*%
X18087337Y33326210D03*
X17233235Y36513766D03*
%TD*%
D14*
%TO.C,S11*%
X5291474Y49205471D03*
D15*
X10604066Y50628976D03*
X-21118Y47781966D03*
D16*
X9150532Y54121788D03*
X3751501Y54952730D03*
D20*
X588094Y54105097D03*
X12313939Y54969420D03*
D16*
X-508727Y51533598D03*
X3751501Y54952730D03*
%TD*%
D14*
%TO.C,S12*%
X5291474Y49205471D03*
D15*
X-21118Y47781966D03*
X10604066Y50628976D03*
D18*
X1445357Y44240858D03*
X6818506Y43506509D03*
X11104616Y46829048D03*
X6818506Y43506509D03*
%TD*%
D21*
%TO.C,D6*%
X13687414Y49746950D03*
X12833312Y52934506D03*
%TD*%
D14*
%TO.C,S13*%
X34655082Y20571380D03*
D15*
X40134153Y21050737D03*
X29176011Y20092023D03*
D16*
X39309221Y24742889D03*
X34136505Y26498738D03*
D22*
X30873968Y26213303D03*
X42571759Y25028324D03*
D16*
X29347274Y23871331D03*
X34136505Y26498738D03*
%TD*%
D14*
%TO.C,S14*%
X34655082Y20571380D03*
D15*
X29176011Y20092023D03*
X40134153Y21050737D03*
D18*
X30005300Y16350061D03*
X35169301Y14693831D03*
X39967247Y17221619D03*
X35169301Y14693831D03*
%TD*%
D23*
%TO.C,D7*%
X43017495Y19646694D03*
X42729881Y22934136D03*
%TD*%
D14*
%TO.C,S15*%
X33173434Y37506690D03*
D15*
X38652505Y37986047D03*
X27694363Y37027333D03*
D16*
X37827573Y41678199D03*
X32654857Y43434048D03*
D22*
X29392320Y43148613D03*
X41090111Y41963634D03*
D16*
X27865626Y40806641D03*
X32654857Y43434048D03*
%TD*%
D14*
%TO.C,S16*%
X33173434Y37506690D03*
D15*
X27694363Y37027333D03*
X38652505Y37986047D03*
D18*
X28523652Y33285371D03*
X33687653Y31629141D03*
X38485599Y34156929D03*
X33687653Y31629141D03*
%TD*%
D23*
%TO.C,D8*%
X41535848Y36582004D03*
X41248234Y39869446D03*
%TD*%
D14*
%TO.C,S17*%
X31691787Y54442000D03*
D15*
X37170858Y54921357D03*
X26212716Y53962643D03*
D16*
X36345926Y58613509D03*
X31173210Y60369358D03*
D22*
X27910673Y60083923D03*
X39608464Y58898944D03*
D16*
X26383979Y57741951D03*
X31173210Y60369358D03*
%TD*%
D14*
%TO.C,S18*%
X31691787Y54442000D03*
D15*
X26212716Y53962643D03*
X37170858Y54921357D03*
D18*
X27042005Y50220681D03*
X32206006Y48564451D03*
X37003952Y51092239D03*
X32206006Y48564451D03*
%TD*%
D23*
%TO.C,D9*%
X40054200Y53517314D03*
X39766586Y56804756D03*
%TD*%
D14*
%TO.C,S19*%
X56322091Y19390601D03*
D15*
X61822091Y19390601D03*
X50822091Y19390601D03*
D16*
X61322091Y23140601D03*
X56322091Y25340601D03*
D24*
X53047091Y25340601D03*
X64597091Y23140601D03*
D16*
X51322091Y23140601D03*
X56322091Y25340601D03*
%TD*%
D14*
%TO.C,S20*%
X56322091Y19390601D03*
D15*
X50822091Y19390601D03*
X61822091Y19390601D03*
D18*
X51322091Y15590601D03*
X56322091Y13490601D03*
X61322091Y15590601D03*
X56322091Y13490601D03*
%TD*%
D25*
%TO.C,D10*%
X64572091Y17740601D03*
X64572091Y21040601D03*
%TD*%
D14*
%TO.C,S21*%
X56322091Y36390601D03*
D15*
X61822091Y36390601D03*
X50822091Y36390601D03*
D16*
X61322091Y40140601D03*
X56322091Y42340601D03*
D24*
X53047091Y42340601D03*
X64597091Y40140601D03*
D16*
X51322091Y40140601D03*
X56322091Y42340601D03*
%TD*%
D14*
%TO.C,S22*%
X56322091Y36390601D03*
D15*
X50822091Y36390601D03*
X61822091Y36390601D03*
D18*
X51322091Y32590601D03*
X56322091Y30490601D03*
X61322091Y32590601D03*
X56322091Y30490601D03*
%TD*%
D25*
%TO.C,D11*%
X64572091Y34740601D03*
X64572091Y38040601D03*
%TD*%
D14*
%TO.C,S23*%
X56322091Y53390601D03*
D15*
X61822091Y53390601D03*
X50822091Y53390601D03*
D16*
X61322091Y57140601D03*
X56322091Y59340601D03*
D24*
X53047091Y59340601D03*
X64597091Y57140601D03*
D16*
X51322091Y57140601D03*
X56322091Y59340601D03*
%TD*%
D14*
%TO.C,S24*%
X56322091Y53390601D03*
D15*
X50822091Y53390601D03*
X61822091Y53390601D03*
D18*
X51322091Y49590601D03*
X56322091Y47490601D03*
X61322091Y49590601D03*
X56322091Y47490601D03*
%TD*%
D25*
%TO.C,D12*%
X64572091Y51740601D03*
X64572091Y55040601D03*
%TD*%
D14*
%TO.C,S25*%
X75322091Y18390601D03*
D15*
X80822091Y18390601D03*
X69822091Y18390601D03*
D16*
X80322091Y22140601D03*
X75322091Y24340601D03*
D24*
X72047091Y24340601D03*
X83597091Y22140601D03*
D16*
X70322091Y22140601D03*
X75322091Y24340601D03*
%TD*%
D14*
%TO.C,S26*%
X75322091Y18390601D03*
D15*
X69822091Y18390601D03*
X80822091Y18390601D03*
D18*
X70322091Y14590601D03*
X75322091Y12490601D03*
X80322091Y14590601D03*
X75322091Y12490601D03*
%TD*%
D25*
%TO.C,D13*%
X83572091Y16740601D03*
X83572091Y20040601D03*
%TD*%
D14*
%TO.C,S27*%
X75322091Y35390601D03*
D15*
X80822091Y35390601D03*
X69822091Y35390601D03*
D16*
X80322091Y39140601D03*
X75322091Y41340601D03*
D24*
X72047091Y41340601D03*
X83597091Y39140601D03*
D16*
X70322091Y39140601D03*
X75322091Y41340601D03*
%TD*%
D14*
%TO.C,S28*%
X75322091Y35390601D03*
D15*
X69822091Y35390601D03*
X80822091Y35390601D03*
D18*
X70322091Y31590601D03*
X75322091Y29490601D03*
X80322091Y31590601D03*
X75322091Y29490601D03*
%TD*%
D25*
%TO.C,D14*%
X83572091Y33740601D03*
X83572091Y37040601D03*
%TD*%
D14*
%TO.C,S29*%
X75322091Y52390601D03*
D15*
X80822091Y52390601D03*
X69822091Y52390601D03*
D16*
X80322091Y56140601D03*
X75322091Y58340601D03*
D24*
X72047091Y58340601D03*
X83597091Y56140601D03*
D16*
X70322091Y56140601D03*
X75322091Y58340601D03*
%TD*%
D14*
%TO.C,S30*%
X75322091Y52390601D03*
D15*
X69822091Y52390601D03*
X80822091Y52390601D03*
D18*
X70322091Y48590601D03*
X75322091Y46490601D03*
X80322091Y48590601D03*
X75322091Y46490601D03*
%TD*%
D25*
%TO.C,D15*%
X83572091Y50740601D03*
X83572091Y54040601D03*
%TD*%
D14*
%TO.C,S31*%
X72322091Y-3609399D03*
D15*
X77634683Y-5032904D03*
X67009499Y-2185894D03*
D16*
X78122292Y-1281272D03*
X73862064Y2137860D03*
D26*
X70698657Y2985492D03*
X81285699Y-2128905D03*
D16*
X68463033Y1306918D03*
X73862064Y2137860D03*
%TD*%
D14*
%TO.C,S32*%
X72322091Y-3609399D03*
D15*
X67009499Y-2185894D03*
X77634683Y-5032904D03*
D18*
X66508949Y-5985822D03*
X70795059Y-9308361D03*
X76168208Y-8574012D03*
X70795059Y-9308361D03*
%TD*%
D27*
%TO.C,D16*%
X79863928Y-7338434D03*
X80718030Y-4150878D03*
%TD*%
D14*
%TO.C,S33*%
X91582503Y-10619616D03*
D15*
X96567196Y-12944016D03*
X86597810Y-8295216D03*
D16*
X97698860Y-9334053D03*
X94097082Y-5227085D03*
D28*
X91128924Y-3843010D03*
X100667018Y-10718128D03*
D16*
X88635783Y-5107870D03*
X94097082Y-5227085D03*
%TD*%
D14*
%TO.C,S34*%
X91582503Y-10619616D03*
D15*
X86597810Y-8295216D03*
X96567196Y-12944016D03*
D18*
X85445015Y-11950494D03*
X89089055Y-15966832D03*
X94508093Y-16176677D03*
X89089055Y-15966832D03*
%TD*%
D29*
%TO.C,D17*%
X98362222Y-15601625D03*
X99756862Y-12610809D03*
%TD*%
D14*
%TO.C,S35*%
X109332995Y-20867867D03*
D15*
X113838331Y-24022537D03*
X104827659Y-17713197D03*
D16*
X115579667Y-20663929D03*
X112745775Y-15993912D03*
D30*
X110063052Y-14115450D03*
X118262390Y-22542392D03*
D16*
X107388146Y-14928165D03*
X112745775Y-15993912D03*
%TD*%
D14*
%TO.C,S36*%
X109332995Y-20867867D03*
D15*
X104827659Y-17713197D03*
X113838331Y-24022537D03*
D18*
X103057644Y-21112763D03*
X105948894Y-25700864D03*
X111249165Y-26848527D03*
X105948894Y-25700864D03*
%TD*%
D31*
%TO.C,D18*%
X115144598Y-26951474D03*
X117037400Y-24248272D03*
%TD*%
D32*
%TO.C,MCU1*%
X105643844Y60133370D03*
D33*
X104115234Y58104835D03*
X102586624Y56076301D03*
X101058014Y54047767D03*
X99529404Y52019233D03*
X98000793Y49990699D03*
X96472183Y47962164D03*
X94943573Y45933630D03*
X93414963Y43905096D03*
X91886353Y41876562D03*
X90357743Y39848028D03*
X88829133Y37819493D03*
X117815049Y50961709D03*
X116286439Y48933174D03*
X114757829Y46904640D03*
X113229219Y44876106D03*
X111700609Y42847572D03*
X110171999Y40819038D03*
X108643389Y38790503D03*
X107114778Y36761969D03*
X105586168Y34733435D03*
X104057558Y32704901D03*
X102528948Y30676367D03*
X101000338Y28647832D03*
%TD*%
D34*
%TO.C,REF\u002A\u002A*%
X59522091Y6240601D03*
X59522091Y4390601D03*
X57132091Y5015601D03*
X54592091Y5015601D03*
X52052091Y5015601D03*
X49512091Y5015601D03*
D35*
X47022091Y5015601D03*
D34*
X59522091Y-7459399D03*
X59522091Y-5609399D03*
X57132091Y-6234399D03*
X54592091Y-6234399D03*
X52052091Y-6234399D03*
X49512091Y-6234399D03*
D35*
X47022091Y-6234399D03*
%TD*%
D27*
%TO.C,D19*%
X63926152Y-3067920D03*
X64780254Y119636D03*
%TD*%
D36*
%TO.C,HOLE1*%
X86388817Y223875D03*
D37*
X85222091Y1390601D03*
D36*
X85222091Y-259399D03*
X86388817Y2557327D03*
X83572091Y1390601D03*
X84055365Y2557327D03*
X84055365Y223875D03*
X86872091Y1390601D03*
X85222091Y3040601D03*
%TD*%
%TO.C,HOLE2*%
X89088817Y52223875D03*
D37*
X87922091Y53390601D03*
D36*
X87922091Y51740601D03*
X89088817Y54557327D03*
X86272091Y53390601D03*
X86755365Y54557327D03*
X86755365Y52223875D03*
X89572091Y53390601D03*
X87922091Y55040601D03*
%TD*%
%TO.C,HOLE3*%
X5465155Y8184650D03*
D37*
X3982145Y8907962D03*
D36*
X4519332Y7347856D03*
X4705457Y10390972D03*
X2422039Y8370775D03*
X2499135Y9631274D03*
X3258833Y7424952D03*
X5542251Y9445149D03*
X3444958Y10468068D03*
%TD*%
%TO.C,HOLE4*%
X-4609123Y42049808D03*
D37*
X-6092133Y42773120D03*
D36*
X-5554946Y41213014D03*
X-5368821Y44256130D03*
X-7652239Y42235933D03*
X-7575143Y43496432D03*
X-6815445Y41290110D03*
X-4532027Y43310307D03*
X-6629320Y44333226D03*
%TD*%
%TO.C,HOLE5*%
X45788817Y46273875D03*
D37*
X44622091Y47440601D03*
D36*
X44622091Y45790601D03*
X45788817Y48607327D03*
X42972091Y47440601D03*
X43455365Y48607327D03*
X43455365Y46273875D03*
X46272091Y47440601D03*
X44622091Y49090601D03*
%TD*%
M02*
