M48
; DRILL file {KiCad 5.99.0-unknown-fa82fcb809~131~ubuntu20.04.1} date Wed Sep  8 19:53:15 2021
; FORMAT={-:-/ absolute / metric / decimal}
; #@! TF.CreationDate,2021-09-08T19:53:15+02:00
; #@! TF.GenerationSoftware,Kicad,Pcbnew,5.99.0-unknown-fa82fcb809~131~ubuntu20.04.1
; #@! TF.FileFunction,NonPlated,1,2,NPTH
FMAT,2
METRIC
; #@! TA.AperFunction,NonPlated,NPTH,ComponentDrill
T1C1.500
; #@! TA.AperFunction,NonPlated,NPTH,ComponentDrill
T2C1.702
; #@! TA.AperFunction,NonPlated,NPTH,ComponentDrill
T3C3.000
; #@! TA.AperFunction,NonPlated,NPTH,ComponentDrill
T4C3.429
%
G90
G05
T1
X47.022Y5.016
X47.022Y-6.234
T2
X-21.804Y29.431
X-21.804Y29.431
X-16.27Y13.357
X-16.27Y13.357
X-11.404Y33.012
X-11.404Y33.012
X-10.735Y-2.717
X-10.735Y-2.717
X-5.869Y16.938
X-5.869Y16.938
X-0.334Y0.864
X-0.334Y0.864
X-0.021Y47.782
X-0.021Y47.782
X4.379Y31.361
X4.379Y31.361
X8.779Y14.94
X8.779Y14.94
X10.604Y50.629
X10.604Y50.629
X15.004Y34.208
X15.004Y34.208
X19.404Y17.787
X19.404Y17.787
X26.213Y53.963
X26.213Y53.963
X27.694Y37.027
X27.694Y37.027
X29.176Y20.092
X29.176Y20.092
X37.171Y54.921
X37.171Y54.921
X38.653Y37.986
X38.653Y37.986
X40.134Y21.051
X40.134Y21.051
X50.822Y53.391
X50.822Y53.391
X50.822Y36.391
X50.822Y36.391
X50.822Y19.391
X50.822Y19.391
X61.822Y53.391
X61.822Y53.391
X61.822Y36.391
X61.822Y36.391
X61.822Y19.391
X61.822Y19.391
X67.009Y-2.186
X67.009Y-2.186
X69.822Y52.391
X69.822Y52.391
X69.822Y35.391
X69.822Y35.391
X69.822Y18.391
X69.822Y18.391
X77.635Y-5.033
X77.635Y-5.033
X80.822Y52.391
X80.822Y52.391
X80.822Y35.391
X80.822Y35.391
X80.822Y18.391
X80.822Y18.391
X86.598Y-8.295
X86.598Y-8.295
X96.567Y-12.944
X96.567Y-12.944
X104.828Y-17.713
X104.828Y-17.713
X113.838Y-24.023
X113.838Y-24.023
T3
X-22.552Y33.139
X-18.541Y36.847
X-18.541Y36.847
X-17.018Y17.065
X-13.097Y36.395
X-13.006Y20.773
X-13.006Y20.773
X-11.483Y0.992
X-7.563Y20.321
X-7.472Y4.7
X-7.472Y4.7
X-2.028Y4.247
X-0.509Y51.534
X3.752Y54.953
X3.752Y54.953
X3.891Y35.113
X8.151Y38.532
X8.151Y38.532
X8.291Y18.692
X9.151Y54.122
X12.551Y22.111
X12.551Y22.111
X13.55Y37.701
X17.95Y21.28
X26.384Y57.742
X27.866Y40.807
X29.347Y23.871
X31.173Y60.369
X31.173Y60.369
X32.655Y43.434
X32.655Y43.434
X34.137Y26.499
X34.137Y26.499
X36.346Y58.614
X37.828Y41.678
X39.309Y24.743
X51.322Y57.141
X51.322Y40.141
X51.322Y23.141
X56.322Y59.341
X56.322Y59.341
X56.322Y42.341
X56.322Y42.341
X56.322Y25.341
X56.322Y25.341
X61.322Y57.141
X61.322Y40.141
X61.322Y23.141
X68.463Y1.307
X70.322Y56.141
X70.322Y39.141
X70.322Y22.141
X73.862Y2.138
X73.862Y2.138
X75.322Y58.341
X75.322Y58.341
X75.322Y41.341
X75.322Y41.341
X75.322Y24.341
X75.322Y24.341
X78.122Y-1.281
X80.322Y56.141
X80.322Y39.141
X80.322Y22.141
X88.636Y-5.108
X94.097Y-5.227
X94.097Y-5.227
X97.699Y-9.334
X107.388Y-14.928
X112.746Y-15.994
X112.746Y-15.994
X115.58Y-20.664
T4
X-16.604Y31.221
X-16.604Y31.221
X-11.069Y15.148
X-11.069Y15.148
X-5.535Y-0.926
X-5.535Y-0.926
X5.291Y49.205
X5.291Y49.205
X9.691Y32.785
X9.691Y32.785
X14.091Y16.364
X14.091Y16.364
X31.692Y54.442
X31.692Y54.442
X33.173Y37.507
X33.173Y37.507
X34.655Y20.571
X34.655Y20.571
X56.322Y53.391
X56.322Y53.391
X56.322Y36.391
X56.322Y36.391
X56.322Y19.391
X56.322Y19.391
X72.322Y-3.609
X72.322Y-3.609
X75.322Y52.391
X75.322Y52.391
X75.322Y35.391
X75.322Y35.391
X75.322Y18.391
X75.322Y18.391
X91.583Y-10.62
X91.583Y-10.62
X109.333Y-20.868
X109.333Y-20.868
T0
M30
