0
SECTION
2
HEADER
9
$INSUNITS
70
4
0
ENDSEC
0
SECTION
2
TABLES
0
TABLE
2
LTYPE
0
LTYPE
72
65
70
64
2
CONTINUOUS
3
______
73
0
40
0
0
ENDTAB
0
TABLE
2
LAYER
0
ENDTAB
0
ENDSEC
0
SECTION
2
ENTITIES
0
LINE
8
0
10
-11.2459989
20
-11.8296511
11
5.6787836
21
-6.0019812
0
LINE
8
0
10
5.6787836
20
-6.0019812
11
0.1766817
21
9.9772827
0
LINE
8
0
10
0.1766817
20
9.9772827
11
-16.7481008
21
4.1496128
0
LINE
8
0
10
-16.7481008
20
4.1496128
11
-11.2459989
21
-11.8296511
0
LINE
8
0
10
-16.7806576
20
4.2441647
11
0.1441249
21
10.0718346
0
LINE
8
0
10
0.1441249
20
10.0718346
11
-5.357977
21
26.0510985
0
LINE
8
0
10
-5.357977
20
26.0510985
11
-22.2827595
21
20.2234286
0
LINE
8
0
10
-22.2827595
20
20.2234286
11
-16.7806576
21
4.2441647
0
LINE
8
0
10
-22.3153162
20
20.3179805
11
-5.3905337
21
26.1456504
0
LINE
8
0
10
-5.3905337
20
26.1456504
11
-10.8926356
21
42.1249143
0
LINE
8
0
10
-10.8926356
20
42.1249143
11
-27.8174181
21
36.2972444
0
LINE
8
0
10
-27.8174181
20
36.2972444
11
-22.3153162
21
20.3179805
0
LINE
8
0
10
7.6333068
20
5.8854887
11
24.9233791
21
10.5183496
0
LINE
8
0
10
24.9233791
20
10.5183496
11
20.5493372
21
26.8424961
0
LINE
8
0
10
20.5493372
20
26.8424961
11
3.2592649
21
22.2096352
0
LINE
8
0
10
3.2592649
20
22.2096352
11
7.6333068
21
5.8854887
0
LINE
8
0
10
3.2333829
20
22.3062277
11
20.5234552
21
26.9390886
0
LINE
8
0
10
20.5234552
20
26.9390886
11
16.1494133
21
43.2632351
0
LINE
8
0
10
16.1494133
20
43.2632351
11
-1.140659
21
38.6303742
0
LINE
8
0
10
-1.140659
20
38.6303742
11
3.2333829
21
22.3062277
0
LINE
8
0
10
-1.1665408
20
38.7269668
11
16.1235315
21
43.3598277
0
LINE
8
0
10
16.1235315
20
43.3598277
11
11.7494896
21
59.6839742
0
LINE
8
0
10
11.7494896
20
59.6839742
11
-5.5405827
21
55.0511133
0
LINE
8
0
10
-5.5405827
20
55.0511133
11
-1.1665408
21
38.7269668
0
LINE
8
0
10
26.4756055
20
11.373491
11
44.3074906
21
12.9335788
0
LINE
8
0
10
44.3074906
20
12.9335788
11
42.8345585
21
29.7692692
0
LINE
8
0
10
42.8345585
20
29.7692692
11
25.0026734
21
28.2091814
0
LINE
8
0
10
25.0026734
20
28.2091814
11
26.4756055
21
11.373491
0
LINE
8
0
10
24.9939579
20
28.3088009
11
42.825843
21
29.8688887
0
LINE
8
0
10
42.825843
20
29.8688887
11
41.3529109
21
46.7045791
0
LINE
8
0
10
41.3529109
20
46.7045791
11
23.5210258
21
45.1444913
0
LINE
8
0
10
23.5210258
20
45.1444913
11
24.9939579
21
28.3088009
0
LINE
8
0
10
23.5123102
20
45.2441109
11
41.3441953
21
46.8041987
0
LINE
8
0
10
41.3441953
20
46.8041987
11
39.8712632
21
63.6398891
0
LINE
8
0
10
39.8712632
20
63.6398891
11
22.0393781
21
62.0798013
0
LINE
8
0
10
22.0393781
20
62.0798013
11
23.5123102
21
45.2441109
0
LINE
8
0
10
47.3720909
20
10.940601
11
65.2720909
21
10.940601
0
LINE
8
0
10
65.2720909
20
10.940601
11
65.2720909
21
27.840601
0
LINE
8
0
10
65.2720909
20
27.840601
11
47.3720909
21
27.840601
0
LINE
8
0
10
47.3720909
20
27.840601
11
47.3720909
21
10.940601
0
LINE
8
0
10
47.3720908
20
27.9406011
11
65.2720908
21
27.9406011
0
LINE
8
0
10
65.2720908
20
27.9406011
11
65.2720908
21
44.8406011
0
LINE
8
0
10
65.2720908
20
44.8406011
11
47.3720908
21
44.8406011
0
LINE
8
0
10
47.3720908
20
44.8406011
11
47.3720908
21
27.9406011
0
LINE
8
0
10
47.3720908
20
44.940601
11
65.2720908
21
44.940601
0
LINE
8
0
10
65.2720908
20
44.940601
11
65.2720908
21
61.840601
0
LINE
8
0
10
65.2720908
20
61.840601
11
47.3720908
21
61.840601
0
LINE
8
0
10
47.3720908
20
61.840601
11
47.3720908
21
44.940601
0
LINE
8
0
10
66.3720907
20
9.940601
11
84.2720907
21
9.940601
0
LINE
8
0
10
84.2720907
20
9.940601
11
84.2720907
21
26.840601
0
LINE
8
0
10
84.2720907
20
26.840601
11
66.3720907
21
26.840601
0
LINE
8
0
10
66.3720907
20
26.840601
11
66.3720907
21
9.940601
0
LINE
8
0
10
66.3720909
20
26.940601
11
84.2720909
21
26.940601
0
LINE
8
0
10
84.2720909
20
26.940601
11
84.2720909
21
43.840601
0
LINE
8
0
10
84.2720909
20
43.840601
11
66.3720909
21
43.840601
0
LINE
8
0
10
66.3720909
20
43.840601
11
66.3720909
21
26.940601
0
LINE
8
0
10
66.3720908
20
43.9406011
11
84.2720908
21
43.9406011
0
LINE
8
0
10
84.2720908
20
43.9406011
11
84.2720908
21
60.8406011
0
LINE
8
0
10
84.2720908
20
60.8406011
11
66.3720908
21
60.8406011
0
LINE
8
0
10
66.3720908
20
60.8406011
11
66.3720908
21
43.9406011
0
LINE
8
0
10
61.4900336
20
-9.4550418
11
78.7801059
21
-14.0879027
0
LINE
8
0
10
78.7801059
20
-14.0879027
11
83.1541478
21
2.2362438
0
LINE
8
0
10
83.1541478
20
2.2362438
11
65.8640755
21
6.8691047
0
LINE
8
0
10
65.8640755
20
6.8691047
11
61.4900336
21
-9.4550418
0
LINE
8
0
10
79.899924
20
-14.4954832
11
96.1228334
21
-22.06035
0
LINE
8
0
10
96.1228334
20
-22.06035
11
103.265082
21
-6.7437484
0
LINE
8
0
10
103.265082
20
-6.7437484
11
87.0421726
21
0.8211184
0
LINE
8
0
10
87.0421726
20
0.8211184
11
79.899924
21
-14.4954832
0
LINE
8
0
10
97.1548632
20
-22.6561927
11
111.8176848
21
-32.9232109
0
LINE
8
0
10
111.8176848
20
-32.9232109
11
121.5111266
21
-19.0795413
0
LINE
8
0
10
121.5111266
20
-19.0795413
11
106.848305
21
-8.8125231
0
LINE
8
0
10
106.848305
20
-8.8125231
11
97.1548632
21
-22.6561927
0
ENDSEC
0
EOF