0
SECTION
2
HEADER
9
$INSUNITS
70
4
0
ENDSEC
0
SECTION
2
TABLES
0
TABLE
2
LTYPE
0
LTYPE
72
65
70
64
2
CONTINUOUS
3
______
73
0
40
0
0
ENDTAB
0
TABLE
2
LAYER
0
ENDTAB
0
ENDSEC
0
SECTION
2
ENTITIES
0
LINE
8
0
10
-9.8743115
20
-9.8237913
11
3.3629485
21
-5.2658371
0
LINE
8
0
10
3.3629485
20
-5.2658371
11
-1.1950057
21
7.9714229
0
LINE
8
0
10
-1.1950057
20
7.9714229
11
-14.4322657
21
3.4134687
0
LINE
8
0
10
-14.4322657
20
3.4134687
11
-9.8743115
21
-9.8237913
0
LINE
8
0
10
-15.4089702
20
6.2500245
11
-2.1717102
21
10.8079787
0
LINE
8
0
10
-2.1717102
20
10.8079787
11
-6.7296644
21
24.0452387
0
LINE
8
0
10
-6.7296644
20
24.0452387
11
-19.9669244
21
19.4872845
0
LINE
8
0
10
-19.9669244
20
19.4872845
11
-15.4089702
21
6.2500245
0
LINE
8
0
10
-20.9436288
20
22.3238403
11
-7.7063688
21
26.8817945
0
LINE
8
0
10
-7.7063688
20
26.8817945
11
-12.264323
21
40.1190545
0
LINE
8
0
10
-12.264323
20
40.1190545
11
-25.501583
21
35.5611003
0
LINE
8
0
10
-25.501583
20
35.5611003
11
-20.9436288
21
22.3238403
0
LINE
8
0
10
9.1415745
20
7.7907783
11
22.6645361
21
11.4142449
0
LINE
8
0
10
22.6645361
20
11.4142449
11
19.0410695
21
24.9372065
0
LINE
8
0
10
19.0410695
20
24.9372065
11
5.5181079
21
21.3137399
0
LINE
8
0
10
5.5181079
20
21.3137399
11
9.1415745
21
7.7907783
0
LINE
8
0
10
4.7416506
20
24.2115173
11
18.2646122
21
27.8349839
0
LINE
8
0
10
18.2646122
20
27.8349839
11
14.6411456
21
41.3579455
0
LINE
8
0
10
14.6411456
20
41.3579455
11
1.118184
21
37.7344789
0
LINE
8
0
10
1.118184
20
37.7344789
11
4.7416506
21
24.2115173
0
LINE
8
0
10
0.3417269
20
40.6322564
11
13.8646885
21
44.255723
0
LINE
8
0
10
13.8646885
20
44.255723
11
10.2412219
21
57.7786846
0
LINE
8
0
10
10.2412219
20
57.7786846
11
-3.2817397
21
54.155218
0
LINE
8
0
10
-3.2817397
20
54.155218
11
0.3417269
21
40.6322564
0
LINE
8
0
10
28.2918093
20
12.987927
11
42.2385351
21
14.2081074
0
LINE
8
0
10
42.2385351
20
14.2081074
11
41.0183547
21
28.1548332
0
LINE
8
0
10
41.0183547
20
28.1548332
11
27.0716289
21
26.9346528
0
LINE
8
0
10
27.0716289
20
26.9346528
11
28.2918093
21
12.987927
0
LINE
8
0
10
26.8101617
20
29.9232369
11
40.7568875
21
31.1434173
0
LINE
8
0
10
40.7568875
20
31.1434173
11
39.5367071
21
45.0901431
0
LINE
8
0
10
39.5367071
20
45.0901431
11
25.5899813
21
43.8699627
0
LINE
8
0
10
25.5899813
20
43.8699627
11
26.8101617
21
29.9232369
0
LINE
8
0
10
25.328514
20
46.8585469
11
39.2752398
21
48.0787273
0
LINE
8
0
10
39.2752398
20
48.0787273
11
38.0550594
21
62.0254531
0
LINE
8
0
10
38.0550594
20
62.0254531
11
24.1083336
21
60.8052727
0
LINE
8
0
10
24.1083336
20
60.8052727
11
25.328514
21
46.8585469
0
LINE
8
0
10
49.3220909
20
12.390601
11
63.3220909
21
12.390601
0
LINE
8
0
10
63.3220909
20
12.390601
11
63.3220909
21
26.390601
0
LINE
8
0
10
63.3220909
20
26.390601
11
49.3220909
21
26.390601
0
LINE
8
0
10
49.3220909
20
26.390601
11
49.3220909
21
12.390601
0
LINE
8
0
10
49.3220908
20
29.3906011
11
63.3220908
21
29.3906011
0
LINE
8
0
10
63.3220908
20
29.3906011
11
63.3220908
21
43.3906011
0
LINE
8
0
10
63.3220908
20
43.3906011
11
49.3220908
21
43.3906011
0
LINE
8
0
10
49.3220908
20
43.3906011
11
49.3220908
21
29.3906011
0
LINE
8
0
10
49.3220908
20
46.390601
11
63.3220908
21
46.390601
0
LINE
8
0
10
63.3220908
20
46.390601
11
63.3220908
21
60.390601
0
LINE
8
0
10
63.3220908
20
60.390601
11
49.3220908
21
60.390601
0
LINE
8
0
10
49.3220908
20
60.390601
11
49.3220908
21
46.390601
0
LINE
8
0
10
68.3220907
20
11.390601
11
82.3220907
21
11.390601
0
LINE
8
0
10
82.3220907
20
11.390601
11
82.3220907
21
25.390601
0
LINE
8
0
10
82.3220907
20
25.390601
11
68.3220907
21
25.390601
0
LINE
8
0
10
68.3220907
20
25.390601
11
68.3220907
21
11.390601
0
LINE
8
0
10
68.3220909
20
28.390601
11
82.3220909
21
28.390601
0
LINE
8
0
10
82.3220909
20
28.390601
11
82.3220909
21
42.390601
0
LINE
8
0
10
82.3220909
20
42.390601
11
68.3220909
21
42.390601
0
LINE
8
0
10
68.3220909
20
42.390601
11
68.3220909
21
28.390601
0
LINE
8
0
10
68.3220908
20
45.3906011
11
82.3220908
21
45.3906011
0
LINE
8
0
10
82.3220908
20
45.3906011
11
82.3220908
21
59.3906011
0
LINE
8
0
10
82.3220908
20
59.3906011
11
68.3220908
21
59.3906011
0
LINE
8
0
10
68.3220908
20
59.3906011
11
68.3220908
21
45.3906011
0
LINE
8
0
10
63.7488766
20
-8.5591465
11
77.2718382
21
-12.1826131
0
LINE
8
0
10
77.2718382
20
-12.1826131
11
80.8953048
21
1.3403485
0
LINE
8
0
10
80.8953048
20
1.3403485
11
67.3723432
21
4.9638151
0
LINE
8
0
10
67.3723432
20
4.9638151
11
63.7488766
21
-8.5591465
0
LINE
8
0
10
82.2800207
20
-14.0054425
11
94.9683297
21
-19.9220981
0
LINE
8
0
10
94.9683297
20
-19.9220981
11
100.8849853
21
-7.2337891
0
LINE
8
0
10
100.8849853
20
-7.2337891
11
88.1966763
21
-1.3171335
0
LINE
8
0
10
88.1966763
20
-1.3171335
11
82.2800207
21
-14.0054425
0
LINE
8
0
10
99.5838955
20
-22.5868963
11
111.0520242
21
-30.6169664
0
LINE
8
0
10
111.0520242
20
-30.6169664
11
119.0820943
21
-19.1488377
0
LINE
8
0
10
119.0820943
20
-19.1488377
11
107.6139656
21
-11.1187676
0
LINE
8
0
10
107.6139656
20
-11.1187676
11
99.5838955
21
-22.5868963
0
ENDSEC
0
EOF